<svg xmlns="http://www.w3.org/2000/svg" xmlns:xlink="http://www.w3.org/1999/xlink" width="500" zoomAndPan="magnify" viewBox="0 0 375 374.999991" height="500" preserveAspectRatio="xMidYMid meet" version="1.0"><defs><clipPath id="28bd71f350"><path d="M 104 220 L 345 220 L 345 353 L 104 353 Z M 104 220 " clip-rule="nonzero"/></clipPath><clipPath id="c0945abc9b"><path d="M 73.027344 -28.859375 L 398.976562 64.289062 L 301.914062 403.941406 L -24.039062 310.792969 Z M 73.027344 -28.859375 " clip-rule="nonzero"/></clipPath><clipPath id="599c98b310"><path d="M 73.027344 -28.859375 L 398.976562 64.289062 L 301.914062 403.941406 L -24.039062 310.792969 Z M 73.027344 -28.859375 " clip-rule="nonzero"/></clipPath><clipPath id="dabbfdc7cd"><path d="M 19 11 L 353 11 L 353 351 L 19 351 Z M 19 11 " clip-rule="nonzero"/></clipPath><clipPath id="8158c8d76b"><path d="M 73.027344 -28.859375 L 398.976562 64.289062 L 301.914062 403.941406 L -24.039062 310.792969 Z M 73.027344 -28.859375 " clip-rule="nonzero"/></clipPath><clipPath id="0b2d17cf49"><path d="M 73.027344 -28.859375 L 398.976562 64.289062 L 301.914062 403.941406 L -24.039062 310.792969 Z M 73.027344 -28.859375 " clip-rule="nonzero"/></clipPath><clipPath id="ff4a6d8909"><path d="M 21 234 L 59 234 L 59 256 L 21 256 Z M 21 234 " clip-rule="nonzero"/></clipPath><clipPath id="eea479bd56"><path d="M 73.027344 -28.859375 L 398.976562 64.289062 L 301.914062 403.941406 L -24.039062 310.792969 Z M 73.027344 -28.859375 " clip-rule="nonzero"/></clipPath><clipPath id="58ce6cefd0"><path d="M 73.027344 -28.859375 L 398.976562 64.289062 L 301.914062 403.941406 L -24.039062 310.792969 Z M 73.027344 -28.859375 " clip-rule="nonzero"/></clipPath><clipPath id="1db3e74993"><path d="M 17 255 L 63 255 L 63 278 L 17 278 Z M 17 255 " clip-rule="nonzero"/></clipPath><clipPath id="0d306d83bd"><path d="M 73.027344 -28.859375 L 398.976562 64.289062 L 301.914062 403.941406 L -24.039062 310.792969 Z M 73.027344 -28.859375 " clip-rule="nonzero"/></clipPath><clipPath id="8005721767"><path d="M 73.027344 -28.859375 L 398.976562 64.289062 L 301.914062 403.941406 L -24.039062 310.792969 Z M 73.027344 -28.859375 " clip-rule="nonzero"/></clipPath><clipPath id="2e986525fa"><path d="M 27 277 L 65 277 L 65 299 L 27 299 Z M 27 277 " clip-rule="nonzero"/></clipPath><clipPath id="6895488c78"><path d="M 73.027344 -28.859375 L 398.976562 64.289062 L 301.914062 403.941406 L -24.039062 310.792969 Z M 73.027344 -28.859375 " clip-rule="nonzero"/></clipPath><clipPath id="0f0d7b2ee7"><path d="M 73.027344 -28.859375 L 398.976562 64.289062 L 301.914062 403.941406 L -24.039062 310.792969 Z M 73.027344 -28.859375 " clip-rule="nonzero"/></clipPath><clipPath id="588d24f885"><path d="M 37 299 L 72 299 L 72 321 L 37 321 Z M 37 299 " clip-rule="nonzero"/></clipPath><clipPath id="23b66e6d2c"><path d="M 73.027344 -28.859375 L 398.976562 64.289062 L 301.914062 403.941406 L -24.039062 310.792969 Z M 73.027344 -28.859375 " clip-rule="nonzero"/></clipPath><clipPath id="e1f94160e4"><path d="M 73.027344 -28.859375 L 398.976562 64.289062 L 301.914062 403.941406 L -24.039062 310.792969 Z M 73.027344 -28.859375 " clip-rule="nonzero"/></clipPath><clipPath id="9799f5ad40"><path d="M 89.660156 71.160156 L 285.410156 71.160156 L 285.410156 187 L 89.660156 187 Z M 89.660156 71.160156 " clip-rule="nonzero"/></clipPath></defs><g clip-path="url(#28bd71f350)"><g clip-path="url(#c0945abc9b)"><g clip-path="url(#599c98b310)"><path fill="#8c52ff" d="M 260.71875 313.203125 C 276.007812 298.292969 287.734375 279.320312 294.019531 257.320312 C 296.097656 250.046875 297.496094 242.742188 298.253906 235.476562 C 285.472656 261.507812 263.996094 281.4375 238.5 292.632812 C 223.75 299.117188 206.570312 292.039062 200.773438 277.003906 L 189.949219 248.949219 C 188.152344 244.28125 184.261719 240.730469 179.453125 239.355469 L 113.089844 220.390625 C 113.074219 220.386719 113.058594 220.386719 113.042969 220.382812 C 108.507812 219.117188 104.207031 223.054688 105.082031 227.695312 L 106.222656 233.707031 C 108.335938 244.894531 116.148438 254.15625 126.8125 258.136719 L 130.65625 259.566406 L 147.476562 265.84375 C 152.238281 267.617188 155.863281 271.570312 157.21875 276.464844 L 161.378906 291.460938 L 163.707031 299.859375 L 176.742188 346.898438 C 176.976562 347.738281 177.34375 348.519531 177.816406 349.21875 C 179.179688 351.230469 181.433594 352.550781 183.957031 352.644531 C 183.976562 352.644531 183.992188 352.644531 184.011719 352.644531 C 251.996094 355.121094 315.972656 316.425781 344.84375 253.832031 C 326.324219 284.882812 295.457031 306.25 260.71875 313.203125 " fill-opacity="1" fill-rule="nonzero"/></g></g></g><g clip-path="url(#dabbfdc7cd)"><g clip-path="url(#8158c8d76b)"><g clip-path="url(#0b2d17cf49)"><path fill="#20c91c" d="M 151.71875 277.992188 C 150.851562 274.867188 148.523438 272.324219 145.484375 271.191406 L 124.816406 263.484375 C 112.359375 258.835938 103.082031 247.835938 100.613281 234.769531 L 99.535156 229.074219 C 98.765625 225.023438 99.9375 220.773438 102.886719 217.890625 C 105.925781 214.914062 110.203125 213.773438 114.292969 214.804688 L 114.65625 214.902344 L 135.90625 220.972656 C 132.101562 208.058594 121.378906 198.339844 108.109375 195.855469 L 85.441406 191.609375 C 75.734375 189.789062 69.097656 180.839844 70.023438 171.007812 C 70.710938 163.71875 72.078125 156.386719 74.160156 149.089844 C 84.734375 112.097656 111.472656 84.105469 144.515625 70.589844 C 112.757812 80.550781 84.566406 100.46875 64.628906 127.761719 C 95.734375 57.183594 174.925781 18.605469 251.171875 40.394531 C 298.367188 53.878906 334.296875 87.605469 352.246094 129.453125 C 335.296875 77.535156 293.761719 34.671875 237.375 18.398438 C 147.113281 -7.648438 52.160156 44.828125 26.214844 135.121094 C 17.078125 166.902344 17.613281 199.164062 26.050781 228.78125 C 26.230469 229.40625 26.402344 230.03125 26.585938 230.65625 L 49.53125 233.199219 C 59.777344 234.339844 65.125 246.085938 59.128906 254.480469 C 58.964844 254.710938 58.867188 254.835938 58.867188 254.835938 C 71.492188 263.984375 65.191406 277.027344 65.191406 277.027344 C 76.011719 286.257812 67.542969 296.503906 67.542969 296.503906 C 71.421875 299.582031 71.945312 303.578125 72.011719 304.855469 C 72.046875 305.503906 72.105469 306.15625 72.164062 306.808594 L 74.433594 331.074219 C 74.824219 335.246094 78.441406 339.601562 82.46875 340.753906 C 87.554688 342.207031 92.527344 338.132812 92.097656 332.859375 L 91.144531 321.121094 L 89.871094 305.464844 C 89.785156 304.371094 90.769531 303.480469 91.867188 303.710938 C 92.582031 303.859375 93.09375 304.503906 93.179688 305.230469 L 95.355469 324.03125 L 96.96875 337.949219 C 97.523438 342.738281 101.519531 346.539062 106.339844 346.511719 C 112.121094 346.476562 116.484375 341.261719 115.503906 335.570312 C 115.5 335.566406 115.5 335.5625 115.5 335.554688 L 110.265625 305.5 C 110.039062 304.210938 111.167969 303.089844 112.457031 303.328125 C 113.203125 303.464844 113.792969 304.039062 113.953125 304.777344 L 121.222656 338.210938 L 122.125 342.355469 C 123.011719 346.441406 126.652344 349.480469 130.828125 349.308594 C 134.082031 349.171875 136.765625 347.253906 138.09375 344.597656 C 138.902344 342.976562 139.207031 341.082031 138.816406 339.144531 L 133.386719 312.074219 C 133.148438 310.882812 133.921875 309.667969 135.128906 309.527344 C 136.199219 309.402344 137.152344 310.117188 137.371094 311.136719 L 143.699219 341.054688 C 144.210938 343.46875 145.402344 345.570312 147.035156 347.199219 C 149.746094 349.910156 153.671875 351.304688 157.722656 350.640625 C 158.5 350.515625 159.242188 350.304688 159.957031 350.042969 C 165.847656 347.894531 169.324219 341.515625 167.582031 335.226562 L 151.71875 277.992188 " fill-opacity="1" fill-rule="nonzero"/></g></g></g><g clip-path="url(#ff4a6d8909)"><g clip-path="url(#eea479bd56)"><g clip-path="url(#58ce6cefd0)"><path fill="#8c52ff" d="M 29.976562 253.859375 L 48.003906 255.921875 C 53.414062 256.539062 58.300781 252.660156 58.921875 247.246094 C 59.542969 241.835938 55.65625 236.949219 50.246094 236.328125 L 32.21875 234.265625 C 26.804688 233.644531 21.917969 237.53125 21.300781 242.941406 C 20.679688 248.351562 24.566406 253.238281 29.976562 253.859375 " fill-opacity="1" fill-rule="nonzero"/></g></g></g><g clip-path="url(#1db3e74993)"><g clip-path="url(#0d306d83bd)"><g clip-path="url(#8005721767)"><path fill="#8c52ff" d="M 62.371094 268.417969 C 62.992188 263.007812 59.105469 258.121094 53.695312 257.503906 L 28.917969 255.28125 C 23.503906 254.660156 18.617188 258.542969 18 263.953125 C 17.378906 269.363281 21.261719 274.253906 26.675781 274.871094 L 51.453125 277.097656 C 56.863281 277.714844 61.753906 273.828125 62.371094 268.417969 " fill-opacity="1" fill-rule="nonzero"/></g></g></g><g clip-path="url(#2e986525fa)"><g clip-path="url(#6895488c78)"><g clip-path="url(#0f0d7b2ee7)"><path fill="#8c52ff" d="M 64.722656 290.203125 C 65.339844 284.792969 61.457031 279.90625 56.046875 279.285156 L 38.019531 277.21875 C 32.605469 276.601562 27.71875 280.488281 27.101562 285.898438 C 26.480469 291.308594 30.367188 296.195312 35.773438 296.8125 L 53.804688 298.878906 C 59.214844 299.496094 64.101562 295.613281 64.722656 290.203125 " fill-opacity="1" fill-rule="nonzero"/></g></g></g><g clip-path="url(#588d24f885)"><g clip-path="url(#23b66e6d2c)"><g clip-path="url(#e1f94160e4)"><path fill="#8c52ff" d="M 62.773438 301 L 47.992188 299.210938 C 42.582031 298.589844 37.695312 302.476562 37.074219 307.886719 C 36.457031 313.296875 40.339844 318.183594 45.75 318.804688 L 60.53125 320.59375 C 65.941406 321.210938 70.828125 317.328125 71.449219 311.917969 C 72.066406 306.507812 68.183594 301.617188 62.773438 301 " fill-opacity="1" fill-rule="nonzero"/></g></g></g><g clip-path="url(#9799f5ad40)"><path fill="#8c52ff" d="M 281.457031 164.175781 C 276.078125 160.089844 270.0625 156.6875 263.699219 154.082031 C 268.8125 149.390625 273.3125 144.082031 276.917969 138.476562 L 279.429688 134.03125 L 274.652344 132.242188 C 268.199219 130.242188 261.382812 129.101562 254.511719 128.832031 C 257.714844 122.671875 260.121094 116.144531 261.59375 109.644531 L 262.433594 104.609375 L 257.332031 104.5625 C 250.585938 104.886719 243.789062 106.148438 237.242188 108.242188 C 238.144531 101.363281 238.175781 94.40625 237.335938 87.792969 L 236.402344 82.773438 L 231.589844 84.476562 C 225.363281 87.089844 219.40625 90.597656 213.972656 94.804688 C 212.464844 88.03125 210.113281 81.480469 207.0625 75.554688 L 204.472656 71.160156 L 200.53125 74.402344 C 195.570312 78.988281 191.175781 84.324219 187.507812 90.136719 C 183.777344 84.289062 179.328125 78.9375 174.433594 74.410156 L 170.492188 71.167969 L 167.902344 75.5625 C 164.808594 81.566406 162.503906 88.085938 161.042969 94.800781 C 155.535156 90.582031 149.523438 87.074219 143.378906 84.492188 L 138.566406 82.792969 L 137.632812 87.808594 C 136.78125 94.511719 136.84375 101.425781 137.769531 108.234375 C 131.152344 106.152344 124.304688 104.914062 117.644531 104.589844 L 112.542969 104.640625 L 113.382812 109.671875 C 114.875 116.261719 117.296875 122.734375 120.496094 128.820312 C 113.5625 129.125 106.703125 130.304688 100.335938 132.277344 L 95.558594 134.066406 L 98.070312 138.511719 C 101.726562 144.191406 106.214844 149.445312 111.304688 154.070312 C 104.894531 156.726562 98.851562 160.179688 93.542969 164.214844 L 89.664062 167.53125 L 93.542969 170.847656 C 107.164062 181.199219 124.871094 187.179688 141.945312 186.828125 C 158.554688 185.753906 175.054688 178.613281 187.5 167.53125 C 174.714844 177.0625 157.757812 183.261719 141.761719 182.503906 C 128.0625 181.855469 114.015625 176.027344 103.039062 167.53125 C 107.386719 164.171875 112.167969 161.277344 117.210938 158.949219 C 123.597656 163.730469 130.675781 167.554688 138.085938 170.082031 C 154.058594 174.753906 172.011719 173.6875 187.496094 167.53125 C 172.222656 172.113281 154.164062 172.140625 139.390625 165.957031 C 133.804688 163.617188 128.5 160.308594 123.679688 156.328125 C 128.933594 154.488281 134.382812 153.261719 139.851562 152.75 C 139.964844 152.839844 140.074219 152.933594 140.1875 153.027344 C 153.597656 162.878906 170.832031 168.015625 187.488281 167.527344 C 173.082031 166.695312 157.8125 161.582031 146.316406 152.566406 C 152.902344 152.882812 159.507812 154.164062 165.851562 156.277344 C 172.445312 161.136719 179.800781 164.976562 187.484375 167.519531 C 182.148438 165.222656 176.917969 162.21875 172.066406 158.648438 C 177.558594 161.011719 182.765625 164.003906 187.484375 167.519531 C 187.484375 167.519531 187.488281 167.519531 187.488281 167.519531 C 187.488281 167.523438 187.488281 167.523438 187.488281 167.527344 C 187.488281 167.523438 187.488281 167.523438 187.488281 167.519531 C 187.488281 167.523438 187.488281 167.523438 187.488281 167.523438 C 187.492188 167.523438 187.492188 167.527344 187.496094 167.53125 C 187.492188 167.527344 187.492188 167.527344 187.492188 167.523438 C 187.496094 167.527344 187.496094 167.527344 187.5 167.53125 C 187.496094 167.527344 187.492188 167.523438 187.488281 167.519531 C 187.488281 167.519531 187.488281 167.519531 187.488281 167.515625 C 187.488281 167.515625 187.488281 167.511719 187.488281 167.511719 C 187.488281 167.511719 187.488281 167.507812 187.488281 167.507812 C 187.488281 167.503906 187.488281 167.503906 187.488281 167.503906 C 187.492188 167.5 187.492188 167.5 187.492188 167.5 C 187.496094 167.5 187.496094 167.5 187.5 167.496094 C 187.5 167.496094 187.503906 167.496094 187.503906 167.496094 C 187.503906 167.5 187.507812 167.5 187.507812 167.5 C 199.960938 178.585938 216.480469 185.734375 233.101562 186.789062 C 249.976562 187.492188 268.054688 180.996094 281.457031 170.808594 L 285.335938 167.492188 Z M 266.863281 138.605469 C 263.925781 143.25 260.425781 147.605469 256.480469 151.519531 C 251.121094 149.898438 245.605469 148.839844 240.089844 148.40625 C 244.082031 144.550781 247.65625 140.125 250.730469 135.351562 C 256.246094 135.851562 261.703125 136.957031 266.863281 138.605469 Z M 190.765625 164.753906 C 195.84375 160.246094 200.359375 155.019531 204.125 149.304688 C 209.316406 145.171875 215.03125 141.730469 221.035156 139.316406 C 217.46875 144.863281 213.054688 149.941406 208.054688 154.382812 C 201.863281 157.085938 196.015625 160.589844 190.765625 164.753906 Z M 202.894531 158.578125 C 198.101562 162.148438 192.910156 165.164062 187.503906 167.496094 C 187.503906 167.492188 187.5 167.492188 187.5 167.492188 C 187.503906 167.492188 187.507812 167.488281 187.507812 167.488281 C 192.164062 164.015625 197.378906 160.988281 202.894531 158.578125 Z M 188.53125 142.878906 C 189.851562 136.375 192.019531 130.066406 195.066406 124.359375 C 195.898438 130.898438 195.785156 137.625 194.804688 144.242188 C 191.800781 150.292969 189.574219 156.734375 188.226562 163.300781 C 189.222656 156.585938 189.320312 149.675781 188.53125 142.878906 Z M 196.894531 144.714844 C 200.359375 139.058594 204.550781 133.871094 209.371094 129.546875 C 207.914062 135.980469 205.503906 142.261719 202.324219 148.144531 C 197.429688 152.804688 193.132812 158.09375 189.625 163.804688 C 192.855469 157.832031 195.308594 151.375 196.894531 144.714844 Z M 226.996094 137.660156 C 227.085938 137.515625 227.175781 137.371094 227.265625 137.226562 C 232.492188 135.800781 238.011719 135.101562 243.578125 135.054688 C 240.738281 139.84375 237.355469 144.285156 233.492188 148.191406 C 233.347656 148.195312 233.199219 148.195312 233.054688 148.195312 C 226.796875 148.601562 220.554688 149.867188 214.539062 151.878906 C 219.296875 147.667969 223.519531 142.886719 226.996094 137.660156 Z M 235.917969 115.667969 C 241.269531 114.246094 246.777344 113.417969 252.191406 113.207031 C 251.019531 118.574219 249.21875 123.863281 246.851562 128.890625 C 241.261719 129.199219 235.714844 130.089844 230.382812 131.574219 C 232.816406 126.582031 234.660156 121.203125 235.917969 115.667969 Z M 229.714844 94.355469 C 230.453125 99.800781 230.570312 105.386719 230.0625 110.921875 C 224.914062 113.125 220.011719 115.859375 215.503906 119.074219 C 216.085938 113.550781 215.976562 107.867188 215.265625 102.234375 C 219.8125 99.070312 224.703125 96.40625 229.714844 94.355469 Z M 214.402344 125.953125 C 214.441406 125.785156 214.472656 125.617188 214.507812 125.453125 C 218.933594 122.324219 223.878906 119.78125 229.097656 117.832031 C 228.066406 123.304688 226.402344 128.636719 224.109375 133.628906 C 223.976562 133.679688 223.839844 133.730469 223.703125 133.78125 C 217.960938 136.300781 212.527344 139.625 207.5625 143.574219 C 210.59375 137.992188 212.925781 132.054688 214.402344 125.953125 Z M 210.3125 123.152344 C 210.203125 123.246094 210.09375 123.339844 209.984375 123.433594 C 205.449219 127.765625 201.480469 132.746094 198.167969 138.15625 C 199.105469 131.875 199.265625 125.496094 198.566406 119.257812 C 198.546875 119.089844 198.515625 118.921875 198.492188 118.753906 C 201.582031 114.300781 205.359375 110.214844 209.597656 106.601562 C 210.5 112.097656 210.761719 117.675781 210.3125 123.152344 Z M 202.148438 84.332031 C 204.703125 89.195312 206.722656 94.40625 208.140625 99.777344 C 204.058594 103.605469 200.382812 107.855469 197.25 112.417969 C 195.90625 107.027344 193.859375 101.722656 191.265625 96.675781 C 194.453125 92.144531 198.140625 87.972656 202.148438 84.332031 Z M 193.765625 118.023438 C 193.695312 118.148438 193.621094 118.273438 193.550781 118.402344 C 190.773438 124.023438 188.746094 130.0625 187.484375 136.28125 C 186.214844 130.054688 184.183594 124.007812 181.394531 118.382812 C 181.316406 118.230469 181.234375 118.082031 181.152344 117.933594 C 182.535156 112.695312 184.6875 107.5625 187.433594 102.71875 C 190.15625 107.574219 192.3125 112.726562 193.765625 118.023438 Z M 187.484375 167.511719 C 187.484375 167.511719 187.484375 167.507812 187.484375 167.507812 C 187.484375 167.507812 187.484375 167.507812 187.484375 167.511719 Z M 187.484375 167.511719 Z M 187.484375 167.507812 C 187.480469 167.503906 187.480469 167.503906 187.476562 167.5 C 184.867188 162.3125 182.792969 156.652344 181.375 150.800781 C 184.0625 156.140625 186.128906 161.777344 187.484375 167.507812 Z M 185.351562 163.820312 C 181.792969 158.035156 177.429688 152.679688 172.457031 147.976562 C 169.289062 142.148438 166.894531 135.925781 165.558594 129.589844 C 170.398438 134.066406 174.636719 139.292969 178.140625 144.992188 C 179.726562 151.558594 182.160156 157.925781 185.351562 163.820312 Z M 180.042969 144.011719 C 179.0625 137.449219 178.9375 130.78125 179.851562 124.371094 C 182.871094 130.234375 185.0625 136.597656 186.40625 143.148438 C 185.652344 149.859375 185.761719 156.675781 186.746094 163.304688 C 185.378906 156.65625 183.109375 150.128906 180.042969 144.011719 Z M 172.816406 84.335938 C 176.878906 88.035156 180.558594 92.238281 183.730469 96.800781 C 181.203125 101.796875 179.203125 107.046875 177.816406 112.40625 C 174.710938 107.800781 170.976562 103.515625 166.808594 99.660156 C 168.257812 94.3125 170.292969 89.128906 172.816406 84.335938 Z M 165.277344 106.648438 C 169.496094 110.277344 173.285156 114.382812 176.460938 118.863281 C 176.4375 119.007812 176.414062 119.152344 176.390625 119.292969 C 175.699219 125.527344 175.863281 131.894531 176.800781 138.167969 C 173.480469 132.753906 169.503906 127.765625 164.960938 123.433594 C 164.835938 123.320312 164.707031 123.207031 164.578125 123.09375 C 164.085938 117.699219 164.351562 112.140625 165.277344 106.648438 Z M 160.570312 126.003906 C 162.054688 132.09375 164.382812 138.023438 167.410156 143.597656 C 162.4375 139.644531 156.996094 136.316406 151.242188 133.800781 C 151.085938 133.734375 150.925781 133.675781 150.769531 133.613281 C 148.460938 128.710938 146.8125 123.398438 145.800781 117.921875 C 151.007812 119.886719 155.96875 122.449219 160.488281 125.574219 C 160.515625 125.71875 160.539062 125.859375 160.570312 126.003906 Z M 145.253906 94.375 C 150.335938 96.460938 155.234375 99.152344 159.773438 102.355469 C 159.105469 107.914062 159.019531 113.53125 159.554688 119.039062 C 155.0625 115.777344 150.085938 113.027344 144.851562 110.828125 C 144.382812 105.308594 144.523438 99.742188 145.253906 94.375 Z M 139.160156 115.769531 C 140.433594 121.222656 142.277344 126.527344 144.660156 131.523438 C 139.324219 129.992188 133.707031 129.109375 128.035156 128.832031 C 125.707031 123.808594 123.9375 118.527344 122.789062 113.234375 C 128.277344 113.453125 133.800781 114.3125 139.160156 115.769531 Z M 118.394531 151.503906 C 114.488281 147.578125 111.015625 143.222656 108.125 138.640625 C 113.359375 136.96875 118.84375 135.886719 124.378906 135.425781 C 127.441406 140.109375 130.984375 144.464844 134.933594 148.34375 C 129.394531 148.730469 123.816406 149.824219 118.394531 151.503906 Z M 141.902344 148.234375 C 141.730469 148.226562 141.558594 148.226562 141.390625 148.21875 C 137.542969 144.40625 134.175781 139.972656 131.355469 135.175781 C 136.921875 135.242188 142.460938 135.953125 147.773438 137.34375 C 147.847656 137.46875 147.921875 137.59375 147.996094 137.71875 C 151.472656 142.933594 155.691406 147.707031 160.445312 151.910156 C 154.417969 149.898438 148.167969 148.632812 141.902344 148.234375 Z M 166.683594 154.300781 C 161.710938 149.90625 157.332031 144.878906 153.914062 139.382812 C 159.992188 141.933594 165.761719 145.394531 171 149.550781 C 174.738281 155.179688 179.203125 160.328125 184.21875 164.777344 C 178.898438 160.558594 172.964844 157.019531 166.683594 154.300781 Z M 176.03125 153.902344 C 180.378906 158.003906 184.25 162.59375 187.484375 167.511719 C 187.484375 167.511719 187.484375 167.515625 187.484375 167.515625 C 187.480469 167.511719 187.476562 167.511719 187.476562 167.507812 C 183.25 163.523438 179.363281 158.917969 176.03125 153.902344 Z M 187.484375 167.515625 C 187.484375 167.515625 187.484375 167.515625 187.484375 167.511719 C 187.484375 167.515625 187.484375 167.515625 187.484375 167.515625 Z M 187.488281 167.519531 C 187.488281 167.519531 187.484375 167.519531 187.484375 167.515625 C 187.484375 167.515625 187.488281 167.515625 187.488281 167.519531 Z M 187.484375 167.507812 C 187.484375 167.503906 187.484375 167.503906 187.484375 167.503906 C 187.484375 167.507812 187.484375 167.507812 187.484375 167.507812 Z M 187.488281 167.503906 C 187.484375 167.503906 187.484375 167.503906 187.484375 167.503906 C 187.484375 167.503906 187.484375 167.503906 187.488281 167.5 C 187.488281 167.503906 187.488281 167.503906 187.488281 167.503906 Z M 187.488281 167.5 C 187.484375 167.5 187.484375 167.503906 187.484375 167.503906 C 187.484375 167.5 187.484375 167.496094 187.484375 167.492188 C 186.804688 161.722656 186.792969 155.695312 187.460938 149.714844 C 188.15625 155.652344 188.171875 161.65625 187.488281 167.5 Z M 187.488281 167.503906 C 187.488281 167.503906 187.488281 167.5 187.488281 167.5 C 187.488281 167.5 187.488281 167.503906 187.488281 167.503906 Z M 187.488281 167.5 C 187.488281 167.5 187.488281 167.5 187.488281 167.496094 C 187.488281 167.496094 187.492188 167.496094 187.492188 167.496094 C 187.492188 167.5 187.488281 167.5 187.488281 167.5 Z M 187.488281 167.496094 C 187.488281 167.496094 187.492188 167.492188 187.492188 167.488281 C 188.828125 161.835938 190.875 156.167969 193.550781 150.773438 C 192.175781 156.589844 190.136719 162.238281 187.492188 167.496094 C 187.492188 167.496094 187.488281 167.496094 187.488281 167.496094 Z M 187.492188 167.5 C 187.492188 167.5 187.492188 167.5 187.492188 167.496094 C 187.492188 167.5 187.492188 167.5 187.492188 167.5 Z M 187.496094 167.496094 C 187.492188 167.496094 187.492188 167.496094 187.492188 167.496094 C 187.492188 167.496094 187.496094 167.496094 187.496094 167.496094 Z M 187.496094 167.496094 C 187.496094 167.492188 187.496094 167.488281 187.5 167.488281 C 190.6875 162.632812 194.550781 158.003906 198.910156 153.851562 C 195.628906 158.847656 191.78125 163.457031 187.496094 167.496094 Z M 187.496094 167.496094 C 187.496094 167.496094 187.496094 167.496094 187.5 167.496094 C 187.5 167.496094 187.496094 167.496094 187.496094 167.496094 Z M 187.5 167.496094 C 187.5 167.496094 187.5 167.492188 187.5 167.492188 C 187.5 167.492188 187.503906 167.496094 187.503906 167.496094 C 187.5 167.496094 187.5 167.496094 187.5 167.496094 Z M 187.503906 167.496094 Z M 187.503906 167.496094 C 195.269531 164.921875 202.703125 161.027344 209.351562 156.085938 C 215.640625 153.980469 222.1875 152.703125 228.65625 152.488281 C 216.972656 161.371094 202.132812 166.652344 187.503906 167.496094 Z M 187.507812 167.5 C 187.507812 167.496094 187.507812 167.496094 187.507812 167.496094 C 204.171875 167.984375 221.417969 162.839844 234.824219 152.96875 C 234.957031 152.863281 235.089844 152.757812 235.222656 152.652344 C 240.625 153.101562 246.050781 154.332031 251.296875 156.195312 C 245.855469 160.652344 239.785156 164.292969 233.34375 166.808594 C 218.832031 171.828125 202.226562 171.910156 187.507812 167.5 Z M 230.820312 182.53125 C 215.46875 182.28125 199.832031 176.683594 187.511719 167.5 C 203.003906 173.65625 220.96875 174.722656 236.945312 170.03125 C 244.359375 167.675781 251.488281 163.796875 257.914062 158.917969 C 262.929688 161.273438 267.679688 164.179688 271.960938 167.492188 C 260.285156 176.523438 245.46875 182.191406 230.820312 182.53125 Z M 230.820312 182.53125 " fill-opacity="1" fill-rule="nonzero"/></g></svg>