<svg xmlns="http://www.w3.org/2000/svg" xmlns:xlink="http://www.w3.org/1999/xlink" width="500" zoomAndPan="magnify" viewBox="0 0 375 374.999991" height="500" preserveAspectRatio="xMidYMid meet" version="1.0"><defs><clipPath id="1e760de87c"><path d="M 143 201 L 246 201 L 246 258 L 143 258 Z M 143 201 " clip-rule="nonzero"/></clipPath><clipPath id="1618c458fc"><path d="M 129.558594 95.601562 L 268.015625 135.171875 L 226.800781 279.398438 L 88.34375 239.828125 Z M 129.558594 95.601562 " clip-rule="nonzero"/></clipPath><clipPath id="b237bbb910"><path d="M 129.558594 95.601562 L 268.015625 135.171875 L 226.800781 279.398438 L 88.34375 239.828125 Z M 129.558594 95.601562 " clip-rule="nonzero"/></clipPath><clipPath id="c2c96e6422"><path d="M 106 112 L 249 112 L 249 257 L 106 257 Z M 106 112 " clip-rule="nonzero"/></clipPath><clipPath id="3e894bd269"><path d="M 129.558594 95.601562 L 268.015625 135.171875 L 226.800781 279.398438 L 88.34375 239.828125 Z M 129.558594 95.601562 " clip-rule="nonzero"/></clipPath><clipPath id="4534cda261"><path d="M 129.558594 95.601562 L 268.015625 135.171875 L 226.800781 279.398438 L 88.34375 239.828125 Z M 129.558594 95.601562 " clip-rule="nonzero"/></clipPath><clipPath id="9c4d0c53c1"><path d="M 107 207 L 124 207 L 124 217 L 107 217 Z M 107 207 " clip-rule="nonzero"/></clipPath><clipPath id="b62a4ef097"><path d="M 129.558594 95.601562 L 268.015625 135.171875 L 226.800781 279.398438 L 88.34375 239.828125 Z M 129.558594 95.601562 " clip-rule="nonzero"/></clipPath><clipPath id="d8314cbc69"><path d="M 129.558594 95.601562 L 268.015625 135.171875 L 226.800781 279.398438 L 88.34375 239.828125 Z M 129.558594 95.601562 " clip-rule="nonzero"/></clipPath><clipPath id="9ad1a830a2"><path d="M 106 216 L 126 216 L 126 226 L 106 226 Z M 106 216 " clip-rule="nonzero"/></clipPath><clipPath id="8f5ed75578"><path d="M 129.558594 95.601562 L 268.015625 135.171875 L 226.800781 279.398438 L 88.34375 239.828125 Z M 129.558594 95.601562 " clip-rule="nonzero"/></clipPath><clipPath id="1a7d893223"><path d="M 129.558594 95.601562 L 268.015625 135.171875 L 226.800781 279.398438 L 88.34375 239.828125 Z M 129.558594 95.601562 " clip-rule="nonzero"/></clipPath><clipPath id="aa45abf6f1"><path d="M 110 225 L 127 225 L 127 235 L 110 235 Z M 110 225 " clip-rule="nonzero"/></clipPath><clipPath id="a3753c40c6"><path d="M 129.558594 95.601562 L 268.015625 135.171875 L 226.800781 279.398438 L 88.34375 239.828125 Z M 129.558594 95.601562 " clip-rule="nonzero"/></clipPath><clipPath id="d76bc4cbc6"><path d="M 129.558594 95.601562 L 268.015625 135.171875 L 226.800781 279.398438 L 88.34375 239.828125 Z M 129.558594 95.601562 " clip-rule="nonzero"/></clipPath><clipPath id="f5736ca235"><path d="M 114 234 L 129 234 L 129 245 L 114 245 Z M 114 234 " clip-rule="nonzero"/></clipPath><clipPath id="7a7e3abb5b"><path d="M 129.558594 95.601562 L 268.015625 135.171875 L 226.800781 279.398438 L 88.34375 239.828125 Z M 129.558594 95.601562 " clip-rule="nonzero"/></clipPath><clipPath id="3bf7d6b3e9"><path d="M 129.558594 95.601562 L 268.015625 135.171875 L 226.800781 279.398438 L 88.34375 239.828125 Z M 129.558594 95.601562 " clip-rule="nonzero"/></clipPath><clipPath id="d60256f928"><path d="M 136.621094 138.085938 L 219.871094 138.085938 L 219.871094 187.585938 L 136.621094 187.585938 Z M 136.621094 138.085938 " clip-rule="nonzero"/></clipPath></defs><rect x="-37.5" width="450" fill="#ffffff" y="-37.499999" height="449.999989" fill-opacity="1"/><rect x="-37.5" width="450" fill="#ffffff" y="-37.499999" height="449.999989" fill-opacity="1"/><g clip-path="url(#1e760de87c)"><g clip-path="url(#1618c458fc)"><g clip-path="url(#b237bbb910)"><path fill="#8c52ff" d="M 209.28125 240.894531 C 215.777344 234.5625 220.753906 226.5 223.425781 217.15625 C 224.308594 214.066406 224.902344 210.964844 225.222656 207.878906 C 219.796875 218.9375 210.671875 227.398438 199.84375 232.15625 C 193.578125 234.910156 186.28125 231.902344 183.820312 225.519531 L 179.222656 213.601562 C 178.457031 211.617188 176.804688 210.109375 174.761719 209.527344 L 146.574219 201.472656 C 146.570312 201.46875 146.5625 201.46875 146.558594 201.46875 C 144.628906 200.929688 142.804688 202.601562 143.175781 204.574219 L 143.660156 207.128906 C 144.558594 211.878906 147.875 215.8125 152.40625 217.503906 L 154.039062 218.113281 L 161.183594 220.777344 C 163.203125 221.53125 164.742188 223.210938 165.320312 225.289062 L 167.085938 231.660156 L 168.074219 235.226562 L 173.613281 255.207031 C 173.710938 255.5625 173.867188 255.894531 174.070312 256.191406 C 174.648438 257.046875 175.605469 257.605469 176.675781 257.644531 C 176.683594 257.644531 176.691406 257.644531 176.699219 257.648438 C 205.574219 258.699219 232.75 242.261719 245.011719 215.675781 C 237.148438 228.863281 224.035156 237.941406 209.28125 240.894531 " fill-opacity="1" fill-rule="nonzero"/></g></g></g><g clip-path="url(#c2c96e6422)"><g clip-path="url(#3e894bd269)"><g clip-path="url(#4534cda261)"><path fill="#20c91c" d="M 162.984375 225.9375 C 162.617188 224.609375 161.625 223.53125 160.335938 223.046875 L 151.558594 219.773438 C 146.265625 217.800781 142.324219 213.128906 141.277344 207.578125 L 140.816406 205.160156 C 140.492188 203.4375 140.988281 201.632812 142.242188 200.410156 C 143.535156 199.144531 145.351562 198.660156 147.085938 199.097656 L 147.242188 199.140625 L 156.265625 201.71875 C 154.652344 196.234375 150.097656 192.105469 144.460938 191.050781 L 134.832031 189.246094 C 130.707031 188.472656 127.890625 184.671875 128.285156 180.496094 C 128.574219 177.398438 129.15625 174.285156 130.042969 171.1875 C 134.53125 155.472656 145.886719 143.585938 159.921875 137.84375 C 146.4375 142.074219 134.460938 150.535156 125.992188 162.125 C 139.203125 132.148438 172.839844 115.761719 205.226562 125.015625 C 225.273438 130.746094 240.53125 145.070312 248.15625 162.847656 C 240.957031 140.792969 223.316406 122.585938 199.363281 115.675781 C 161.027344 104.613281 120.695312 126.902344 109.675781 165.253906 C 105.796875 178.753906 106.023438 192.457031 109.605469 205.035156 C 109.683594 205.300781 109.753906 205.566406 109.832031 205.832031 L 119.578125 206.910156 C 123.933594 207.394531 126.203125 212.386719 123.65625 215.953125 C 123.585938 216.050781 123.542969 216.101562 123.542969 216.101562 C 128.90625 219.988281 126.230469 225.527344 126.230469 225.527344 C 130.828125 229.449219 127.230469 233.800781 127.230469 233.800781 C 128.878906 235.105469 129.101562 236.804688 129.128906 237.347656 C 129.144531 237.625 129.167969 237.898438 129.191406 238.175781 L 130.15625 248.484375 C 130.324219 250.257812 131.859375 252.105469 133.570312 252.59375 C 135.730469 253.214844 137.839844 251.480469 137.660156 249.242188 L 137.253906 244.257812 L 136.714844 237.605469 C 136.675781 237.140625 137.09375 236.765625 137.5625 236.859375 C 137.867188 236.925781 138.082031 237.199219 138.117188 237.507812 L 139.042969 245.492188 L 139.726562 251.402344 C 139.964844 253.4375 141.660156 255.050781 143.710938 255.039062 C 146.164062 255.027344 148.015625 252.8125 147.601562 250.394531 C 147.601562 250.390625 147.601562 250.390625 147.601562 250.386719 L 145.375 237.621094 C 145.28125 237.074219 145.761719 236.597656 146.308594 236.699219 C 146.625 236.757812 146.875 237 146.941406 237.3125 L 150.03125 251.515625 L 150.414062 253.277344 C 150.789062 255.011719 152.335938 256.300781 154.109375 256.226562 C 155.492188 256.171875 156.632812 255.355469 157.195312 254.226562 C 157.539062 253.539062 157.667969 252.734375 157.503906 251.914062 L 155.195312 240.414062 C 155.097656 239.910156 155.425781 239.390625 155.9375 239.332031 C 156.390625 239.28125 156.796875 239.582031 156.890625 240.015625 L 159.578125 252.722656 C 159.792969 253.75 160.300781 254.640625 160.992188 255.332031 C 162.144531 256.484375 163.8125 257.078125 165.53125 256.796875 C 165.863281 256.742188 166.179688 256.652344 166.480469 256.542969 C 168.984375 255.628906 170.460938 252.917969 169.722656 250.246094 L 162.984375 225.9375 " fill-opacity="1" fill-rule="nonzero"/></g></g></g><g clip-path="url(#9c4d0c53c1)"><g clip-path="url(#b62a4ef097)"><g clip-path="url(#d8314cbc69)"><path fill="#8c52ff" d="M 111.273438 215.6875 L 118.929688 216.5625 C 121.230469 216.824219 123.304688 215.175781 123.566406 212.878906 C 123.832031 210.582031 122.179688 208.503906 119.882812 208.242188 L 112.226562 207.363281 C 109.925781 207.101562 107.851562 208.75 107.589844 211.050781 C 107.324219 213.347656 108.976562 215.421875 111.273438 215.6875 " fill-opacity="1" fill-rule="nonzero"/></g></g></g><g clip-path="url(#9ad1a830a2)"><g clip-path="url(#8f5ed75578)"><g clip-path="url(#1a7d893223)"><path fill="#8c52ff" d="M 125.035156 221.871094 C 125.296875 219.574219 123.644531 217.496094 121.347656 217.234375 L 110.824219 216.289062 C 108.523438 216.027344 106.449219 217.675781 106.1875 219.976562 C 105.921875 222.273438 107.574219 224.347656 109.871094 224.613281 L 120.394531 225.558594 C 122.695312 225.820312 124.769531 224.167969 125.035156 221.871094 " fill-opacity="1" fill-rule="nonzero"/></g></g></g><g clip-path="url(#aa45abf6f1)"><g clip-path="url(#a3753c40c6)"><g clip-path="url(#d76bc4cbc6)"><path fill="#8c52ff" d="M 126.03125 231.125 C 126.296875 228.824219 124.644531 226.75 122.347656 226.488281 L 114.6875 225.609375 C 112.390625 225.347656 110.316406 226.996094 110.050781 229.296875 C 109.789062 231.59375 111.4375 233.667969 113.738281 233.933594 L 121.394531 234.808594 C 123.691406 235.070312 125.769531 233.421875 126.03125 231.125 " fill-opacity="1" fill-rule="nonzero"/></g></g></g><g clip-path="url(#f5736ca235)"><g clip-path="url(#7a7e3abb5b)"><g clip-path="url(#3bf7d6b3e9)"><path fill="#8c52ff" d="M 125.203125 235.710938 L 118.925781 234.949219 C 116.628906 234.6875 114.550781 236.335938 114.289062 238.632812 C 114.027344 240.933594 115.675781 243.007812 117.972656 243.273438 L 124.25 244.03125 C 126.550781 244.296875 128.625 242.644531 128.886719 240.347656 C 129.152344 238.050781 127.5 235.972656 125.203125 235.710938 " fill-opacity="1" fill-rule="nonzero"/></g></g></g><g clip-path="url(#d60256f928)"><path fill="#8c52ff" d="M 218.082031 177.589844 C 215.796875 175.855469 213.242188 174.410156 210.539062 173.304688 C 212.710938 171.3125 214.621094 169.054688 216.15625 166.675781 L 217.21875 164.789062 L 215.191406 164.027344 C 212.449219 163.179688 209.554688 162.695312 206.636719 162.578125 C 207.996094 159.964844 209.019531 157.191406 209.644531 154.429688 L 210.003906 152.292969 L 207.835938 152.273438 C 204.96875 152.410156 202.082031 152.945312 199.304688 153.835938 C 199.6875 150.914062 199.699219 147.957031 199.34375 145.148438 L 198.945312 143.019531 L 196.902344 143.742188 C 194.257812 144.851562 191.730469 146.339844 189.421875 148.128906 C 188.78125 145.25 187.78125 142.46875 186.488281 139.953125 L 185.386719 138.085938 L 183.710938 139.464844 C 181.605469 141.410156 179.738281 143.675781 178.179688 146.144531 C 176.597656 143.660156 174.707031 141.390625 172.628906 139.464844 L 170.957031 138.089844 L 169.855469 139.957031 C 168.542969 142.507812 167.5625 145.273438 166.941406 148.125 C 164.601562 146.335938 162.050781 144.84375 159.4375 143.75 L 157.394531 143.027344 L 157 145.15625 C 156.636719 148.003906 156.664062 150.9375 157.058594 153.832031 C 154.246094 152.949219 151.339844 152.421875 148.511719 152.285156 L 146.34375 152.304688 L 146.699219 154.441406 C 147.332031 157.242188 148.363281 159.988281 149.722656 162.574219 C 146.777344 162.703125 143.863281 163.203125 141.160156 164.042969 L 139.128906 164.804688 L 140.195312 166.691406 C 141.75 169.101562 143.65625 171.335938 145.816406 173.296875 C 143.09375 174.425781 140.527344 175.894531 138.273438 177.605469 L 136.628906 179.015625 L 138.273438 180.421875 C 144.058594 184.820312 151.578125 187.359375 158.832031 187.210938 C 165.882812 186.753906 172.894531 183.722656 178.179688 179.015625 C 172.75 183.0625 165.546875 185.695312 158.753906 185.375 C 152.933594 185.097656 146.96875 182.625 142.308594 179.015625 C 144.152344 177.585938 146.183594 176.359375 148.324219 175.371094 C 151.039062 177.402344 154.042969 179.027344 157.191406 180.097656 C 163.976562 182.082031 171.597656 181.628906 178.175781 179.015625 C 171.6875 180.960938 164.019531 180.972656 157.746094 178.347656 C 155.375 177.355469 153.121094 175.945312 151.074219 174.257812 C 153.304688 173.476562 155.617188 172.953125 157.941406 172.738281 C 157.988281 172.777344 158.035156 172.816406 158.085938 172.855469 C 163.78125 177.039062 171.097656 179.222656 178.171875 179.011719 C 172.054688 178.660156 165.570312 176.488281 160.6875 172.660156 C 163.484375 172.792969 166.289062 173.339844 168.984375 174.234375 C 171.785156 176.300781 174.90625 177.929688 178.171875 179.011719 C 175.90625 178.035156 173.683594 176.757812 171.625 175.242188 C 173.957031 176.246094 176.167969 177.515625 178.171875 179.011719 C 178.175781 179.011719 178.175781 179.011719 178.175781 179.015625 C 178.175781 179.011719 178.175781 179.011719 178.175781 179.011719 C 178.175781 179.011719 178.175781 179.015625 178.179688 179.015625 C 178.175781 179.011719 178.175781 179.011719 178.171875 179.011719 C 178.171875 179.011719 178.171875 179.007812 178.171875 179.007812 C 178.171875 179.007812 178.171875 179.003906 178.171875 179.003906 C 178.175781 179.003906 178.175781 179.003906 178.175781 179 C 178.179688 179 178.179688 179 178.179688 179 C 183.46875 183.710938 190.484375 186.746094 197.542969 187.195312 C 204.710938 187.492188 212.390625 184.734375 218.082031 180.40625 L 219.730469 179 Z M 211.882812 166.730469 C 210.636719 168.703125 209.148438 170.554688 207.472656 172.214844 C 205.199219 171.527344 202.855469 171.078125 200.511719 170.894531 C 202.207031 169.253906 203.726562 167.375 205.03125 165.347656 C 207.375 165.558594 209.691406 166.03125 211.882812 166.730469 Z M 179.566406 177.835938 C 181.722656 175.921875 183.640625 173.699219 185.238281 171.273438 C 187.441406 169.519531 189.871094 168.058594 192.421875 167.03125 C 190.90625 169.386719 189.03125 171.546875 186.90625 173.429688 C 184.277344 174.578125 181.792969 176.066406 179.566406 177.835938 Z M 184.714844 175.210938 C 182.679688 176.730469 180.476562 178.011719 178.179688 179 C 178.179688 179 178.179688 178.996094 178.179688 178.996094 C 180.160156 177.523438 182.375 176.238281 184.714844 175.210938 Z M 178.617188 168.542969 C 179.175781 165.785156 180.097656 163.105469 181.390625 160.679688 C 181.746094 163.457031 181.695312 166.316406 181.28125 169.125 C 180.003906 171.695312 179.058594 174.429688 178.488281 177.21875 C 178.910156 174.367188 178.949219 171.433594 178.617188 168.542969 Z M 182.167969 169.324219 C 183.640625 166.921875 185.421875 164.71875 187.464844 162.882812 C 186.847656 165.613281 185.824219 168.285156 184.472656 170.78125 C 182.394531 172.761719 180.570312 175.007812 179.082031 177.433594 C 180.453125 174.894531 181.496094 172.152344 182.167969 169.324219 Z M 194.953125 166.328125 C 194.992188 166.269531 195.027344 166.207031 195.066406 166.144531 C 197.285156 165.539062 199.628906 165.242188 201.996094 165.222656 C 200.789062 167.257812 199.351562 169.140625 197.710938 170.800781 C 197.648438 170.804688 197.585938 170.800781 197.527344 170.804688 C 194.867188 170.976562 192.214844 171.511719 189.660156 172.367188 C 191.683594 170.578125 193.476562 168.550781 194.953125 166.328125 Z M 198.742188 156.988281 C 201.015625 156.386719 203.351562 156.035156 205.652344 155.941406 C 205.15625 158.222656 204.390625 160.46875 203.382812 162.605469 C 201.011719 162.734375 198.65625 163.113281 196.390625 163.742188 C 197.425781 161.625 198.207031 159.339844 198.742188 156.988281 Z M 196.105469 147.9375 C 196.417969 150.25 196.46875 152.621094 196.253906 154.972656 C 194.066406 155.90625 191.984375 157.070312 190.070312 158.433594 C 190.316406 156.089844 190.273438 153.675781 189.96875 151.285156 C 191.898438 149.9375 193.976562 148.808594 196.105469 147.9375 Z M 189.605469 161.355469 C 189.621094 161.285156 189.632812 161.214844 189.648438 161.144531 C 191.527344 159.816406 193.628906 158.734375 195.84375 157.910156 C 195.40625 160.230469 194.699219 162.496094 193.726562 164.617188 C 193.667969 164.636719 193.609375 164.660156 193.554688 164.679688 C 191.113281 165.75 188.808594 167.164062 186.699219 168.839844 C 187.984375 166.46875 188.976562 163.949219 189.605469 161.355469 Z M 187.867188 160.167969 C 187.820312 160.207031 187.773438 160.246094 187.726562 160.285156 C 185.800781 162.125 184.117188 164.242188 182.707031 166.539062 C 183.105469 163.871094 183.175781 161.164062 182.878906 158.511719 C 182.867188 158.441406 182.855469 158.371094 182.847656 158.296875 C 184.160156 156.40625 185.761719 154.671875 187.5625 153.136719 C 187.945312 155.472656 188.054688 157.839844 187.867188 160.167969 Z M 184.398438 143.679688 C 185.484375 145.746094 186.34375 147.957031 186.945312 150.238281 C 185.210938 151.867188 183.648438 153.671875 182.320312 155.609375 C 181.746094 153.320312 180.878906 151.066406 179.777344 148.921875 C 181.132812 147 182.695312 145.226562 184.398438 143.679688 Z M 180.839844 157.988281 C 180.808594 158.042969 180.777344 158.097656 180.746094 158.148438 C 179.566406 160.539062 178.707031 163.101562 178.171875 165.742188 C 177.632812 163.097656 176.769531 160.53125 175.585938 158.140625 C 175.550781 158.078125 175.515625 158.015625 175.484375 157.949219 C 176.070312 155.726562 176.984375 153.546875 178.148438 151.488281 C 179.308594 153.550781 180.222656 155.738281 180.839844 157.988281 Z M 178.171875 179.007812 C 178.171875 179.007812 178.171875 179.003906 178.171875 179.003906 C 178.171875 179.003906 178.171875 179.003906 178.171875 179.007812 Z M 178.171875 179.007812 Z M 178.171875 179.003906 C 178.171875 179.003906 178.167969 179.003906 178.167969 179 C 177.058594 176.796875 176.179688 174.394531 175.578125 171.910156 C 176.71875 174.179688 177.59375 176.570312 178.171875 179.003906 Z M 177.265625 177.4375 C 175.753906 174.980469 173.902344 172.707031 171.789062 170.710938 C 170.445312 168.234375 169.425781 165.589844 168.859375 162.902344 C 170.914062 164.800781 172.714844 167.023438 174.203125 169.441406 C 174.878906 172.230469 175.910156 174.933594 177.265625 177.4375 Z M 175.011719 169.027344 C 174.59375 166.238281 174.542969 163.40625 174.929688 160.6875 C 176.210938 163.175781 177.144531 165.878906 177.714844 168.660156 C 177.394531 171.511719 177.441406 174.40625 177.855469 177.21875 C 177.277344 174.394531 176.3125 171.625 175.011719 169.027344 Z M 171.941406 143.683594 C 173.667969 145.253906 175.230469 147.039062 176.578125 148.976562 C 175.503906 151.097656 174.652344 153.328125 174.066406 155.601562 C 172.746094 153.648438 171.160156 151.828125 169.390625 150.191406 C 170.003906 147.917969 170.871094 145.71875 171.941406 143.683594 Z M 168.738281 153.160156 C 170.53125 154.699219 172.140625 156.441406 173.488281 158.347656 C 173.480469 158.40625 173.46875 158.46875 173.460938 158.527344 C 173.167969 161.175781 173.234375 163.878906 173.632812 166.546875 C 172.222656 164.246094 170.535156 162.125 168.605469 160.285156 C 168.550781 160.238281 168.496094 160.191406 168.445312 160.144531 C 168.234375 157.851562 168.347656 155.492188 168.738281 153.160156 Z M 166.738281 161.378906 C 167.371094 163.964844 168.359375 166.484375 169.644531 168.851562 C 167.535156 167.171875 165.222656 165.757812 162.78125 164.691406 C 162.714844 164.664062 162.644531 164.636719 162.578125 164.609375 C 161.597656 162.527344 160.898438 160.269531 160.46875 157.945312 C 162.679688 158.78125 164.785156 159.867188 166.707031 161.195312 C 166.71875 161.257812 166.726562 161.316406 166.738281 161.378906 Z M 160.234375 147.945312 C 162.394531 148.832031 164.472656 149.976562 166.402344 151.335938 C 166.117188 153.695312 166.082031 156.082031 166.308594 158.421875 C 164.402344 157.035156 162.289062 155.867188 160.066406 154.933594 C 159.867188 152.589844 159.925781 150.226562 160.234375 147.945312 Z M 157.648438 157.03125 C 158.191406 159.347656 158.972656 161.601562 159.984375 163.722656 C 157.71875 163.070312 155.332031 162.699219 152.921875 162.582031 C 151.933594 160.445312 151.183594 158.203125 150.695312 155.957031 C 153.027344 156.050781 155.371094 156.414062 157.648438 157.03125 Z M 148.828125 172.207031 C 147.167969 170.539062 145.695312 168.691406 144.46875 166.746094 C 146.691406 166.035156 149.019531 165.574219 151.371094 165.378906 C 152.671875 167.371094 154.175781 169.21875 155.855469 170.867188 C 153.5 171.03125 151.132812 171.496094 148.828125 172.207031 Z M 158.8125 170.820312 C 158.738281 170.816406 158.667969 170.816406 158.59375 170.8125 C 156.960938 169.191406 155.53125 167.3125 154.332031 165.273438 C 156.695312 165.300781 159.050781 165.601562 161.304688 166.195312 C 161.339844 166.246094 161.367188 166.300781 161.402344 166.351562 C 162.878906 168.570312 164.667969 170.597656 166.6875 172.382812 C 164.128906 171.527344 161.472656 170.988281 158.8125 170.820312 Z M 169.335938 173.398438 C 167.226562 171.53125 165.367188 169.394531 163.914062 167.058594 C 166.496094 168.144531 168.945312 169.613281 171.171875 171.378906 C 172.757812 173.769531 174.65625 175.957031 176.785156 177.84375 C 174.523438 176.054688 172.003906 174.550781 169.335938 173.398438 Z M 173.304688 173.226562 C 175.152344 174.96875 176.796875 176.917969 178.171875 179.007812 C 178.167969 179.007812 178.167969 179.007812 178.167969 179.003906 C 176.371094 177.3125 174.722656 175.355469 173.304688 173.226562 Z M 178.171875 179.007812 Z M 178.171875 179.007812 Z M 178.171875 179.003906 Z M 178.171875 179.003906 Z M 178.171875 179.003906 C 178.171875 179 178.171875 179 178.171875 179 C 177.882812 176.546875 177.878906 173.988281 178.160156 171.449219 C 178.457031 173.96875 178.464844 176.519531 178.171875 179.003906 Z M 178.171875 179.003906 Z M 178.171875 179.003906 C 178.171875 179 178.171875 179 178.171875 179 C 178.171875 179 178.175781 179 178.175781 179 C 178.175781 179 178.171875 179 178.171875 179.003906 Z M 178.171875 179 C 178.171875 179 178.175781 179 178.175781 178.996094 C 178.742188 176.597656 179.613281 174.1875 180.746094 171.898438 C 180.164062 174.367188 179.296875 176.765625 178.175781 179 C 178.175781 179 178.171875 179 178.171875 179 Z M 178.175781 179 Z M 178.175781 179 Z M 178.175781 179 C 178.175781 179 178.175781 178.996094 178.175781 178.996094 C 179.53125 176.933594 181.171875 174.96875 183.023438 173.207031 C 181.628906 175.328125 179.996094 177.285156 178.175781 179 Z M 178.175781 179 Z M 178.175781 179 C 178.175781 179 178.179688 179 178.179688 179 C 178.175781 179 178.175781 179 178.175781 179 Z M 178.179688 179 Z M 178.179688 179 C 181.476562 177.90625 184.632812 176.253906 187.457031 174.15625 C 190.128906 173.261719 192.910156 172.71875 195.65625 172.625 C 190.695312 176.398438 184.394531 178.640625 178.179688 179 Z M 178.179688 179 C 185.257812 179.207031 192.582031 177.023438 198.277344 172.832031 C 198.332031 172.785156 198.390625 172.742188 198.445312 172.695312 C 200.738281 172.886719 203.042969 173.410156 205.273438 174.199219 C 202.960938 176.09375 200.382812 177.640625 197.648438 178.707031 C 191.484375 180.839844 184.433594 180.875 178.179688 179 Z M 196.578125 185.386719 C 190.054688 185.28125 183.414062 182.902344 178.183594 179.003906 C 184.761719 181.617188 192.390625 182.070312 199.175781 180.078125 C 202.324219 179.078125 205.355469 177.429688 208.082031 175.355469 C 210.210938 176.355469 212.230469 177.589844 214.050781 179 C 209.089844 182.835938 202.796875 185.242188 196.578125 185.386719 Z M 196.578125 185.386719 " fill-opacity="1" fill-rule="nonzero"/></g></svg>