<svg xmlns="http://www.w3.org/2000/svg" xmlns:xlink="http://www.w3.org/1999/xlink" width="500" zoomAndPan="magnify" viewBox="0 0 375 374.999991" height="500" preserveAspectRatio="xMidYMid meet" version="1.0"><defs><g/><clipPath id="cc0ad90b68"><path d="M 38 206 L 141 206 L 141 264 L 38 264 Z M 38 206 " clip-rule="nonzero"/></clipPath><clipPath id="2a52a3333b"><path d="M 24.550781 101.160156 L 163.007812 140.726562 L 121.789062 284.953125 L -16.667969 245.386719 Z M 24.550781 101.160156 " clip-rule="nonzero"/></clipPath><clipPath id="5359feca14"><path d="M 24.550781 101.160156 L 163.007812 140.726562 L 121.789062 284.953125 L -16.667969 245.386719 Z M 24.550781 101.160156 " clip-rule="nonzero"/></clipPath><clipPath id="2eb23cfe49"><path d="M 1 118 L 144 118 L 144 263 L 1 263 Z M 1 118 " clip-rule="nonzero"/></clipPath><clipPath id="83327a7c2b"><path d="M 24.550781 101.160156 L 163.007812 140.726562 L 121.789062 284.953125 L -16.667969 245.386719 Z M 24.550781 101.160156 " clip-rule="nonzero"/></clipPath><clipPath id="88aaaee8c8"><path d="M 24.550781 101.160156 L 163.007812 140.726562 L 121.789062 284.953125 L -16.667969 245.386719 Z M 24.550781 101.160156 " clip-rule="nonzero"/></clipPath><clipPath id="aadb456104"><path d="M 2 212 L 19 212 L 19 223 L 2 223 Z M 2 212 " clip-rule="nonzero"/></clipPath><clipPath id="bac8eea0e5"><path d="M 24.550781 101.160156 L 163.007812 140.726562 L 121.789062 284.953125 L -16.667969 245.386719 Z M 24.550781 101.160156 " clip-rule="nonzero"/></clipPath><clipPath id="f79c202ce4"><path d="M 24.550781 101.160156 L 163.007812 140.726562 L 121.789062 284.953125 L -16.667969 245.386719 Z M 24.550781 101.160156 " clip-rule="nonzero"/></clipPath><clipPath id="c12be98953"><path d="M 1 221 L 21 221 L 21 232 L 1 232 Z M 1 221 " clip-rule="nonzero"/></clipPath><clipPath id="5ffa7dca74"><path d="M 24.550781 101.160156 L 163.007812 140.726562 L 121.789062 284.953125 L -16.667969 245.386719 Z M 24.550781 101.160156 " clip-rule="nonzero"/></clipPath><clipPath id="24f2edb111"><path d="M 24.550781 101.160156 L 163.007812 140.726562 L 121.789062 284.953125 L -16.667969 245.386719 Z M 24.550781 101.160156 " clip-rule="nonzero"/></clipPath><clipPath id="e030bf3154"><path d="M 5 231 L 22 231 L 22 241 L 5 241 Z M 5 231 " clip-rule="nonzero"/></clipPath><clipPath id="8ed77b600a"><path d="M 24.550781 101.160156 L 163.007812 140.726562 L 121.789062 284.953125 L -16.667969 245.386719 Z M 24.550781 101.160156 " clip-rule="nonzero"/></clipPath><clipPath id="45416e7adc"><path d="M 24.550781 101.160156 L 163.007812 140.726562 L 121.789062 284.953125 L -16.667969 245.386719 Z M 24.550781 101.160156 " clip-rule="nonzero"/></clipPath><clipPath id="53e58ec342"><path d="M 9 240 L 24 240 L 24 250 L 9 250 Z M 9 240 " clip-rule="nonzero"/></clipPath><clipPath id="20963f9334"><path d="M 24.550781 101.160156 L 163.007812 140.726562 L 121.789062 284.953125 L -16.667969 245.386719 Z M 24.550781 101.160156 " clip-rule="nonzero"/></clipPath><clipPath id="f83f21679c"><path d="M 24.550781 101.160156 L 163.007812 140.726562 L 121.789062 284.953125 L -16.667969 245.386719 Z M 24.550781 101.160156 " clip-rule="nonzero"/></clipPath><clipPath id="a84c362555"><path d="M 31.613281 143.640625 L 114.863281 143.640625 L 114.863281 193 L 31.613281 193 Z M 31.613281 143.640625 " clip-rule="nonzero"/></clipPath></defs><rect x="-37.5" width="450" fill="#ffffff" y="-37.499999" height="449.999989" fill-opacity="1"/><rect x="-37.5" width="450" fill="#ffffff" y="-37.499999" height="449.999989" fill-opacity="1"/><g clip-path="url(#cc0ad90b68)"><g clip-path="url(#2a52a3333b)"><g clip-path="url(#5359feca14)"><path fill="#8c52ff" d="M 104.273438 246.449219 C 110.765625 240.117188 115.746094 232.054688 118.417969 222.710938 C 119.300781 219.625 119.894531 216.519531 120.214844 213.433594 C 114.785156 224.492188 105.664062 232.957031 94.835938 237.710938 C 88.570312 240.464844 81.273438 237.457031 78.808594 231.074219 L 74.214844 219.15625 C 73.449219 217.175781 71.796875 215.664062 69.753906 215.082031 L 41.566406 207.027344 C 41.558594 207.023438 41.554688 207.023438 41.546875 207.023438 C 39.621094 206.484375 37.792969 208.160156 38.164062 210.128906 L 38.648438 212.683594 C 39.546875 217.433594 42.863281 221.371094 47.394531 223.058594 L 49.027344 223.667969 L 56.171875 226.332031 C 58.195312 227.085938 59.734375 228.765625 60.3125 230.84375 L 62.078125 237.214844 L 63.066406 240.78125 L 68.601562 260.761719 C 68.703125 261.117188 68.859375 261.449219 69.058594 261.746094 C 69.640625 262.601562 70.59375 263.164062 71.667969 263.203125 C 71.675781 263.203125 71.683594 263.203125 71.691406 263.203125 C 100.566406 264.253906 127.742188 247.816406 140.003906 221.230469 C 132.136719 234.417969 119.027344 243.496094 104.273438 246.449219 " fill-opacity="1" fill-rule="nonzero"/></g></g></g><g clip-path="url(#2eb23cfe49)"><g clip-path="url(#83327a7c2b)"><g clip-path="url(#88aaaee8c8)"><path fill="#20c91c" d="M 57.972656 231.492188 C 57.605469 230.164062 56.617188 229.085938 55.324219 228.605469 L 46.546875 225.332031 C 41.257812 223.355469 37.316406 218.683594 36.265625 213.136719 L 35.808594 210.714844 C 35.484375 208.996094 35.980469 207.191406 37.230469 205.964844 C 38.523438 204.699219 40.339844 204.214844 42.078125 204.65625 L 42.230469 204.695312 L 51.257812 207.273438 C 49.640625 201.789062 45.085938 197.660156 39.453125 196.605469 L 29.824219 194.800781 C 25.699219 194.027344 22.882812 190.226562 23.273438 186.050781 C 23.566406 182.953125 24.144531 179.839844 25.03125 176.742188 C 29.523438 161.03125 40.878906 149.140625 54.914062 143.398438 C 41.425781 147.628906 29.453125 156.089844 20.984375 167.683594 C 34.195312 137.707031 67.832031 121.316406 100.214844 130.574219 C 120.261719 136.300781 135.523438 150.625 143.148438 168.402344 C 135.949219 146.351562 118.308594 128.144531 94.355469 121.230469 C 56.019531 110.167969 15.6875 132.457031 4.664062 170.808594 C 0.785156 184.308594 1.011719 198.011719 4.597656 210.589844 C 4.671875 210.855469 4.746094 211.121094 4.824219 211.386719 L 14.570312 212.46875 C 18.921875 212.953125 21.191406 217.941406 18.648438 221.507812 C 18.578125 221.605469 18.535156 221.65625 18.535156 221.65625 C 23.898438 225.542969 21.222656 231.082031 21.222656 231.082031 C 25.816406 235.003906 22.21875 239.355469 22.21875 239.355469 C 23.867188 240.664062 24.089844 242.359375 24.121094 242.902344 C 24.132812 243.179688 24.160156 243.457031 24.183594 243.734375 L 25.148438 254.039062 C 25.3125 255.8125 26.847656 257.664062 28.5625 258.152344 C 30.722656 258.769531 32.832031 257.039062 32.652344 254.796875 L 32.246094 249.8125 L 31.707031 243.160156 C 31.667969 242.695312 32.085938 242.320312 32.550781 242.417969 C 32.855469 242.480469 33.074219 242.753906 33.109375 243.0625 L 34.035156 251.046875 L 34.71875 256.960938 C 34.953125 258.992188 36.652344 260.609375 38.699219 260.597656 C 41.15625 260.582031 43.007812 258.367188 42.589844 255.949219 C 42.589844 255.949219 42.589844 255.945312 42.589844 255.941406 L 40.367188 243.175781 C 40.269531 242.628906 40.75 242.152344 41.296875 242.253906 C 41.613281 242.3125 41.863281 242.554688 41.933594 242.871094 L 45.023438 257.070312 L 45.40625 258.832031 C 45.78125 260.566406 47.328125 261.855469 49.101562 261.785156 C 50.480469 261.726562 51.625 260.914062 52.1875 259.785156 C 52.53125 259.09375 52.660156 258.289062 52.496094 257.46875 L 50.1875 245.96875 C 50.085938 245.464844 50.414062 244.945312 50.929688 244.886719 C 51.382812 244.835938 51.789062 245.136719 51.878906 245.570312 L 54.570312 258.277344 C 54.785156 259.304688 55.292969 260.195312 55.984375 260.890625 C 57.136719 262.039062 58.804688 262.632812 60.523438 262.351562 C 60.855469 262.296875 61.171875 262.207031 61.472656 262.097656 C 63.976562 261.183594 65.453125 258.472656 64.710938 255.804688 L 57.972656 231.492188 " fill-opacity="1" fill-rule="nonzero"/></g></g></g><g clip-path="url(#aadb456104)"><g clip-path="url(#bac8eea0e5)"><g clip-path="url(#f79c202ce4)"><path fill="#8c52ff" d="M 6.265625 221.242188 L 13.921875 222.117188 C 16.21875 222.382812 18.296875 220.734375 18.558594 218.433594 C 18.820312 216.136719 17.171875 214.058594 14.875 213.796875 L 7.214844 212.921875 C 4.917969 212.65625 2.84375 214.308594 2.578125 216.605469 C 2.316406 218.902344 3.964844 220.980469 6.265625 221.242188 " fill-opacity="1" fill-rule="nonzero"/></g></g></g><g clip-path="url(#c12be98953)"><g clip-path="url(#5ffa7dca74)"><g clip-path="url(#24f2edb111)"><path fill="#8c52ff" d="M 20.023438 227.425781 C 20.289062 225.128906 18.636719 223.054688 16.339844 222.789062 L 5.8125 221.847656 C 3.515625 221.582031 1.441406 223.230469 1.175781 225.53125 C 0.914062 227.828125 2.5625 229.90625 4.863281 230.167969 L 15.386719 231.113281 C 17.683594 231.375 19.761719 229.726562 20.023438 227.425781 " fill-opacity="1" fill-rule="nonzero"/></g></g></g><g clip-path="url(#e030bf3154)"><g clip-path="url(#8ed77b600a)"><g clip-path="url(#45416e7adc)"><path fill="#8c52ff" d="M 21.023438 236.679688 C 21.285156 234.382812 19.636719 232.304688 17.339844 232.042969 L 9.679688 231.164062 C 7.382812 230.902344 5.304688 232.550781 5.042969 234.851562 C 4.78125 237.148438 6.429688 239.226562 8.726562 239.488281 L 16.386719 240.363281 C 18.683594 240.628906 20.757812 238.976562 21.023438 236.679688 " fill-opacity="1" fill-rule="nonzero"/></g></g></g><g clip-path="url(#53e58ec342)"><g clip-path="url(#20963f9334)"><g clip-path="url(#f83f21679c)"><path fill="#8c52ff" d="M 20.195312 241.265625 L 13.917969 240.503906 C 11.617188 240.242188 9.542969 241.890625 9.28125 244.191406 C 9.015625 246.488281 10.667969 248.5625 12.964844 248.828125 L 19.242188 249.585938 C 21.539062 249.851562 23.617188 248.199219 23.878906 245.902344 C 24.140625 243.605469 22.492188 241.527344 20.195312 241.265625 " fill-opacity="1" fill-rule="nonzero"/></g></g></g><g fill="#20c91c" fill-opacity="1"><g transform="translate(115.835262, 214.055537)"><g><path d="M 12.171875 0.984375 C 8.140625 0.984375 5.101562 0.285156 3.0625 -1.109375 C 1.019531 -2.515625 0 -4.226562 0 -6.25 C 0 -7.738281 0.445312 -8.929688 1.34375 -9.828125 C 2.25 -10.734375 3.445312 -11.1875 4.9375 -11.1875 C 5.28125 -11.1875 5.628906 -11.148438 5.984375 -11.078125 C 6.335938 -11.015625 6.578125 -10.984375 6.703125 -10.984375 L 7.5625 -10.859375 L 7.5625 -0.984375 C 7.875 -0.804688 8.179688 -0.695312 8.484375 -0.65625 C 9.234375 -0.4375 10.023438 -0.328125 10.859375 -0.328125 C 16.117188 -0.328125 18.75 -4.601562 18.75 -13.15625 L 18.75 -44.078125 L 14.796875 -45.0625 L 14.796875 -46.046875 L 33.546875 -46.046875 L 33.546875 -45.0625 L 29.609375 -44.078125 L 29.609375 -13.15625 C 29.609375 -8.59375 28.179688 -5.09375 25.328125 -2.65625 C 22.472656 -0.226562 18.085938 0.984375 12.171875 0.984375 Z M 12.171875 0.984375 "/></g></g></g><g fill="#20c91c" fill-opacity="1"><g transform="translate(152.012838, 214.055537)"><g><path d="M 20.0625 0.984375 C 14.625 0.984375 10.359375 -0.554688 7.265625 -3.640625 C 4.171875 -6.734375 2.625 -11.003906 2.625 -16.453125 C 2.625 -21.890625 4.171875 -26.148438 7.265625 -29.234375 C 10.359375 -32.328125 14.625 -33.875 20.0625 -33.875 C 25.5 -33.875 29.765625 -32.328125 32.859375 -29.234375 C 35.953125 -26.148438 37.5 -21.890625 37.5 -16.453125 C 37.5 -11.003906 35.953125 -6.734375 32.859375 -3.640625 C 29.765625 -0.554688 25.5 0.984375 20.0625 0.984375 Z M 20.0625 -0.328125 C 21.8125 -0.328125 23.289062 -1.554688 24.5 -4.015625 C 25.707031 -6.472656 26.3125 -10.617188 26.3125 -16.453125 C 26.3125 -22.273438 25.707031 -26.414062 24.5 -28.875 C 23.289062 -31.332031 21.8125 -32.5625 20.0625 -32.5625 C 18.3125 -32.5625 16.832031 -31.332031 15.625 -28.875 C 14.414062 -26.414062 13.8125 -22.273438 13.8125 -16.453125 C 13.8125 -10.617188 14.414062 -6.472656 15.625 -4.015625 C 16.832031 -1.554688 18.3125 -0.328125 20.0625 -0.328125 Z M 20.0625 -0.328125 "/></g></g></g><g fill="#20c91c" fill-opacity="1"><g transform="translate(192.137057, 214.055537)"><g><path d="M 24.34375 0.984375 C 21.40625 0.984375 18.945312 0 16.96875 -1.96875 C 16.132812 -2.851562 15.410156 -3.84375 14.796875 -4.9375 C 14.492188 -3.96875 13.96875 -3.085938 13.21875 -2.296875 C 11.550781 -0.546875 9.117188 0.328125 5.921875 0.328125 L 5.265625 0.328125 L 5.265625 -44.078125 L 1.3125 -45.0625 L 1.3125 -46.046875 L 9.875 -46.046875 C 13.8125 -46.046875 15.78125 -44.070312 15.78125 -40.125 L 15.78125 -31.25 C 16.488281 -31.8125 17.171875 -32.25 17.828125 -32.5625 C 19.398438 -33.4375 21.242188 -33.875 23.359375 -33.875 C 27.785156 -33.875 31.300781 -32.367188 33.90625 -29.359375 C 36.519531 -26.359375 37.828125 -22.054688 37.828125 -16.453125 C 37.828125 -12.722656 37.234375 -9.550781 36.046875 -6.9375 C 34.859375 -4.332031 33.253906 -2.359375 31.234375 -1.015625 C 29.222656 0.316406 26.925781 0.984375 24.34375 0.984375 Z M 21.703125 -1.3125 C 23.109375 -1.3125 24.28125 -2.414062 25.21875 -4.625 C 26.164062 -6.84375 26.640625 -10.785156 26.640625 -16.453125 C 26.640625 -22.367188 26.125 -26.421875 25.09375 -28.609375 C 24.0625 -30.804688 22.601562 -31.90625 20.71875 -31.90625 C 19.582031 -31.90625 18.421875 -31.46875 17.234375 -30.59375 C 16.878906 -30.320312 16.394531 -29.878906 15.78125 -29.265625 L 15.78125 -6.578125 C 16.175781 -5.566406 16.660156 -4.691406 17.234375 -3.953125 C 18.546875 -2.191406 20.035156 -1.3125 21.703125 -1.3125 Z M 21.703125 -1.3125 "/></g></g></g><g fill="#20c91c" fill-opacity="1"><g transform="translate(232.590168, 214.055537)"><g><path d="M 1.96875 -44.078125 L -1.3125 -45.0625 L -1.3125 -46.046875 L 6.578125 -46.046875 C 8.859375 -46.046875 10.722656 -45.53125 12.171875 -44.5 C 13.617188 -43.46875 14.710938 -42.117188 15.453125 -40.453125 L 27.109375 -13.953125 L 37.828125 -43.09375 L 32.890625 -45.0625 L 32.890625 -46.046875 L 45.0625 -46.046875 L 45.0625 -45.0625 L 39.796875 -43.09375 L 23.6875 0.65625 L 21.703125 0.65625 Z M 1.96875 -44.078125 "/></g></g></g><g fill="#20c91c" fill-opacity="1"><g transform="translate(276.332151, 214.055537)"><g><path d="M 2.625 -0.984375 L 6.578125 -1.96875 L 6.578125 -30.921875 L 2.625 -31.90625 L 2.625 -32.890625 L 11.1875 -32.890625 C 15.132812 -32.890625 17.109375 -30.914062 17.109375 -26.96875 L 17.109375 -1.96875 L 21.046875 -0.984375 L 21.046875 0 L 2.625 0 Z M 11.1875 -36.84375 C 9.875 -36.84375 8.773438 -37.28125 7.890625 -38.15625 C 7.015625 -39.03125 6.578125 -40.125 6.578125 -41.4375 C 6.578125 -42.757812 7.015625 -43.859375 7.890625 -44.734375 C 8.773438 -45.609375 9.875 -46.046875 11.1875 -46.046875 C 12.5 -46.046875 13.59375 -45.609375 14.46875 -44.734375 C 15.351562 -43.859375 15.796875 -42.757812 15.796875 -41.4375 C 15.796875 -40.125 15.351562 -39.03125 14.46875 -38.15625 C 13.59375 -37.28125 12.5 -36.84375 11.1875 -36.84375 Z M 11.1875 -36.84375 "/></g></g></g><g fill="#20c91c" fill-opacity="1"><g transform="translate(298.696468, 214.055537)"><g><path d="M 20.390625 0.984375 C 14.773438 0.984375 10.410156 -0.554688 7.296875 -3.640625 C 4.179688 -6.734375 2.625 -11.003906 2.625 -16.453125 C 2.625 -20.003906 3.300781 -23.09375 4.65625 -25.71875 C 6.019531 -28.351562 7.921875 -30.367188 10.359375 -31.765625 C 12.796875 -33.171875 15.59375 -33.875 18.75 -33.875 C 21.90625 -33.875 24.675781 -33.28125 27.0625 -32.09375 C 29.457031 -30.914062 31.300781 -29.328125 32.59375 -27.328125 C 33.882812 -25.335938 34.53125 -23.132812 34.53125 -20.71875 C 34.53125 -19.625 34.421875 -18.679688 34.203125 -17.890625 L 33.875 -16.78125 C 31.988281 -16.382812 29.953125 -16.050781 27.765625 -15.78125 C 23.160156 -15.125 18.507812 -14.796875 13.8125 -14.796875 C 13.8125 -9.710938 14.515625 -6.082031 15.921875 -3.90625 C 17.328125 -1.738281 19.253906 -0.65625 21.703125 -0.65625 C 23.410156 -0.65625 25 -1.0625 26.46875 -1.875 C 27.945312 -2.6875 29.113281 -3.757812 29.96875 -5.09375 C 30.820312 -6.4375 31.25 -7.804688 31.25 -9.203125 L 32.890625 -9.203125 C 32.890625 -7.453125 32.363281 -5.785156 31.3125 -4.203125 C 30.257812 -2.628906 28.789062 -1.367188 26.90625 -0.421875 C 25.019531 0.515625 22.847656 0.984375 20.390625 0.984375 Z M 13.8125 -16.453125 C 16.625 -16.453125 18.90625 -16.5625 20.65625 -16.78125 C 21.40625 -16.820312 22.195312 -16.929688 23.03125 -17.109375 C 23.070312 -17.328125 23.179688 -17.804688 23.359375 -18.546875 C 23.578125 -19.640625 23.6875 -20.800781 23.6875 -22.03125 C 23.6875 -25.675781 23.203125 -28.34375 22.234375 -30.03125 C 21.265625 -31.71875 20.101562 -32.5625 18.75 -32.5625 C 15.457031 -32.5625 13.8125 -27.191406 13.8125 -16.453125 Z M 13.8125 -16.453125 "/></g></g></g><g fill="#20c91c" fill-opacity="1"><g transform="translate(335.531827, 214.055537)"><g><path d="M 19.734375 0.984375 C 16.835938 0.984375 14.328125 0.457031 12.203125 -0.59375 C 10.078125 -1.644531 8.441406 -3.09375 7.296875 -4.9375 C 6.160156 -6.78125 5.59375 -8.863281 5.59375 -11.1875 L 5.59375 -31.25 L 0.984375 -31.25 L 0.984375 -32.890625 L 5.59375 -32.890625 L 5.59375 -36.1875 C 5.59375 -40.125 7.566406 -42.09375 11.515625 -42.09375 L 16.109375 -42.09375 L 16.109375 -32.890625 L 25.328125 -32.890625 L 25.328125 -31.25 L 16.109375 -31.25 L 16.109375 -11.1875 C 16.109375 -7.144531 16.523438 -4.378906 17.359375 -2.890625 C 18.191406 -1.398438 19.421875 -0.65625 21.046875 -0.65625 C 22.628906 -0.65625 24.007812 -1.421875 25.1875 -2.953125 C 26.375 -4.492188 26.96875 -6.578125 26.96875 -9.203125 L 28.609375 -9.203125 C 28.609375 -5.960938 27.796875 -3.453125 26.171875 -1.671875 C 24.554688 0.0976562 22.410156 0.984375 19.734375 0.984375 Z M 19.734375 0.984375 "/></g></g></g><g clip-path="url(#a84c362555)"><path fill="#8c52ff" d="M 113.074219 183.144531 C 110.789062 181.410156 108.234375 179.964844 105.53125 178.859375 C 107.703125 176.867188 109.613281 174.613281 111.144531 172.230469 L 112.210938 170.34375 L 110.183594 169.582031 C 107.441406 168.734375 104.546875 168.25 101.628906 168.132812 C 102.988281 165.519531 104.011719 162.746094 104.636719 159.984375 L 104.992188 157.847656 L 102.828125 157.828125 C 99.960938 157.964844 97.074219 158.5 94.292969 159.390625 C 94.675781 156.46875 94.691406 153.515625 94.332031 150.707031 L 93.9375 148.574219 L 91.894531 149.296875 C 89.25 150.40625 86.71875 151.898438 84.410156 153.683594 C 83.769531 150.808594 82.773438 148.027344 81.476562 145.507812 L 80.375 143.640625 L 78.703125 145.019531 C 76.597656 146.96875 74.730469 149.234375 73.171875 151.703125 C 71.585938 149.21875 69.699219 146.945312 67.617188 145.023438 L 65.945312 143.644531 L 64.84375 145.511719 C 63.53125 148.0625 62.550781 150.828125 61.933594 153.683594 C 59.59375 151.890625 57.039062 150.398438 54.429688 149.304688 L 52.386719 148.582031 L 51.992188 150.714844 C 51.628906 153.558594 51.65625 156.496094 52.046875 159.386719 C 49.238281 158.503906 46.328125 157.976562 43.5 157.839844 L 41.335938 157.859375 L 41.691406 159.996094 C 42.324219 162.796875 43.351562 165.546875 44.710938 168.128906 C 41.769531 168.257812 38.855469 168.757812 36.152344 169.597656 L 34.121094 170.359375 L 35.1875 172.246094 C 36.738281 174.660156 38.648438 176.890625 40.808594 178.851562 C 38.085938 179.984375 35.519531 181.449219 33.265625 183.164062 L 31.617188 184.570312 L 33.265625 185.980469 C 39.050781 190.375 46.570312 192.914062 53.820312 192.765625 C 60.875 192.3125 67.882812 189.277344 73.167969 184.570312 C 67.738281 188.617188 60.539062 191.253906 53.742188 190.929688 C 47.925781 190.65625 41.960938 188.179688 37.296875 184.570312 C 39.144531 183.144531 41.175781 181.914062 43.316406 180.925781 C 46.03125 182.957031 49.035156 184.582031 52.183594 185.652344 C 58.964844 187.636719 66.589844 187.183594 73.167969 184.570312 C 66.679688 186.515625 59.011719 186.527344 52.738281 183.902344 C 50.363281 182.910156 48.109375 181.503906 46.0625 179.8125 C 48.296875 179.03125 50.609375 178.507812 52.933594 178.292969 C 52.980469 178.332031 53.027344 178.371094 53.074219 178.410156 C 58.769531 182.59375 66.089844 184.777344 73.164062 184.570312 C 67.046875 184.214844 60.558594 182.042969 55.679688 178.214844 C 58.476562 178.347656 61.28125 178.894531 63.976562 179.792969 C 66.773438 181.855469 69.898438 183.488281 73.160156 184.566406 C 70.894531 183.589844 68.675781 182.316406 66.613281 180.796875 C 68.945312 181.800781 71.15625 183.070312 73.164062 184.566406 C 73.164062 184.566406 73.164062 184.566406 73.160156 184.566406 C 73.164062 184.566406 73.164062 184.566406 73.164062 184.566406 C 73.164062 184.566406 73.164062 184.566406 73.164062 184.570312 C 73.164062 184.566406 73.164062 184.566406 73.164062 184.566406 C 73.164062 184.566406 73.164062 184.570312 73.167969 184.570312 C 73.164062 184.570312 73.164062 184.566406 73.164062 184.566406 C 73.167969 184.570312 73.167969 184.570312 73.167969 184.570312 C 73.167969 184.570312 73.164062 184.566406 73.164062 184.566406 C 73.164062 184.5625 73.164062 184.5625 73.164062 184.5625 C 73.164062 184.5625 73.164062 184.5625 73.164062 184.558594 C 73.164062 184.558594 73.164062 184.558594 73.167969 184.558594 C 73.167969 184.558594 73.167969 184.558594 73.167969 184.554688 C 73.167969 184.554688 73.167969 184.554688 73.171875 184.554688 C 73.171875 184.558594 73.171875 184.558594 73.171875 184.558594 C 78.460938 189.265625 85.476562 192.300781 92.535156 192.75 C 99.703125 193.046875 107.382812 190.289062 113.074219 185.960938 L 114.71875 184.554688 Z M 106.875 172.285156 C 105.628906 174.257812 104.140625 176.109375 102.464844 177.769531 C 100.1875 177.082031 97.847656 176.632812 95.503906 176.449219 C 97.199219 174.808594 98.714844 172.929688 100.023438 170.90625 C 102.363281 171.117188 104.683594 171.585938 106.875 172.285156 Z M 74.554688 183.390625 C 76.710938 181.476562 78.628906 179.257812 80.230469 176.828125 C 82.433594 175.074219 84.859375 173.613281 87.410156 172.589844 C 85.898438 174.945312 84.023438 177.101562 81.898438 178.984375 C 79.269531 180.136719 76.785156 181.621094 74.554688 183.390625 Z M 79.707031 180.769531 C 77.671875 182.285156 75.464844 183.566406 73.167969 184.554688 C 73.171875 184.554688 73.171875 184.554688 73.171875 184.550781 C 75.148438 183.078125 77.363281 181.792969 79.707031 180.769531 Z M 73.605469 174.101562 C 74.167969 171.339844 75.085938 168.660156 76.382812 166.234375 C 76.734375 169.011719 76.6875 171.871094 76.269531 174.679688 C 74.996094 177.25 74.050781 179.984375 73.476562 182.773438 C 73.898438 179.921875 73.941406 176.988281 73.605469 174.101562 Z M 77.160156 174.878906 C 78.628906 172.476562 80.410156 170.273438 82.457031 168.441406 C 81.839844 171.171875 80.816406 173.839844 79.464844 176.335938 C 77.386719 178.316406 75.5625 180.5625 74.070312 182.988281 C 75.441406 180.453125 76.484375 177.707031 77.160156 174.878906 Z M 89.941406 171.882812 C 89.980469 171.824219 90.019531 171.761719 90.054688 171.699219 C 92.277344 171.09375 94.621094 170.796875 96.984375 170.777344 C 95.777344 172.8125 94.339844 174.699219 92.703125 176.359375 C 92.640625 176.359375 92.578125 176.359375 92.515625 176.359375 C 89.859375 176.53125 87.207031 177.070312 84.652344 177.921875 C 86.671875 176.136719 88.464844 174.105469 89.941406 171.882812 Z M 93.730469 162.542969 C 96.003906 161.941406 98.34375 161.589844 100.640625 161.5 C 100.144531 163.777344 99.378906 166.027344 98.375 168.160156 C 96 168.292969 93.644531 168.671875 91.382812 169.300781 C 92.414062 167.179688 93.199219 164.894531 93.730469 162.542969 Z M 91.097656 153.492188 C 91.410156 155.804688 91.460938 158.179688 91.246094 160.527344 C 89.058594 161.464844 86.976562 162.625 85.0625 163.992188 C 85.308594 161.644531 85.261719 159.230469 84.960938 156.839844 C 86.890625 155.496094 88.96875 154.363281 91.097656 153.492188 Z M 84.59375 166.910156 C 84.609375 166.839844 84.625 166.769531 84.636719 166.699219 C 86.519531 165.371094 88.621094 164.289062 90.835938 163.464844 C 90.394531 165.789062 89.691406 168.050781 88.71875 170.171875 C 88.660156 170.195312 88.601562 170.214844 88.542969 170.238281 C 86.105469 171.308594 83.796875 172.71875 81.6875 174.398438 C 82.976562 172.023438 83.964844 169.503906 84.59375 166.910156 Z M 82.859375 165.722656 C 82.8125 165.761719 82.761719 165.800781 82.71875 165.84375 C 80.792969 167.683594 79.105469 169.796875 77.699219 172.09375 C 78.097656 169.425781 78.164062 166.71875 77.867188 164.070312 C 77.859375 163.996094 77.847656 163.925781 77.835938 163.855469 C 79.148438 161.964844 80.753906 160.230469 82.554688 158.695312 C 82.9375 161.027344 83.046875 163.394531 82.859375 165.722656 Z M 79.390625 149.234375 C 80.476562 151.300781 81.332031 153.515625 81.933594 155.796875 C 80.199219 157.421875 78.640625 159.226562 77.308594 161.164062 C 76.738281 158.875 75.871094 156.621094 74.769531 154.476562 C 76.121094 152.554688 77.6875 150.78125 79.390625 149.234375 Z M 75.828125 163.542969 C 75.800781 163.597656 75.769531 163.652344 75.738281 163.707031 C 74.558594 166.09375 73.699219 168.65625 73.160156 171.296875 C 72.621094 168.65625 71.761719 166.085938 70.578125 163.695312 C 70.542969 163.632812 70.507812 163.570312 70.472656 163.507812 C 71.058594 161.28125 71.972656 159.101562 73.140625 157.042969 C 74.296875 159.105469 75.210938 161.292969 75.828125 163.542969 Z M 73.160156 184.5625 C 73.160156 184.5625 73.160156 184.5625 73.160156 184.558594 C 73.160156 184.5625 73.160156 184.5625 73.164062 184.5625 C 73.160156 184.5625 73.160156 184.5625 73.160156 184.5625 Z M 73.164062 184.5625 C 73.164062 184.5625 73.164062 184.5625 73.160156 184.5625 C 73.164062 184.5625 73.164062 184.5625 73.164062 184.5625 Z M 73.160156 184.5625 C 73.160156 184.558594 73.160156 184.558594 73.160156 184.558594 C 72.050781 182.351562 71.167969 179.949219 70.566406 177.464844 C 71.707031 179.734375 72.585938 182.128906 73.160156 184.558594 C 73.160156 184.5625 73.160156 184.5625 73.160156 184.5625 Z M 72.257812 182.992188 C 70.746094 180.539062 68.890625 178.261719 66.78125 176.265625 C 65.433594 173.789062 64.417969 171.148438 63.851562 168.457031 C 65.90625 170.359375 67.707031 172.578125 69.191406 174.996094 C 69.867188 177.785156 70.902344 180.492188 72.257812 182.992188 Z M 70.003906 174.582031 C 69.585938 171.792969 69.53125 168.964844 69.921875 166.242188 C 71.203125 168.730469 72.132812 171.433594 72.703125 174.214844 C 72.382812 177.066406 72.429688 179.960938 72.847656 182.777344 C 72.269531 179.953125 71.304688 177.179688 70.003906 174.582031 Z M 66.933594 149.238281 C 68.660156 150.808594 70.222656 152.59375 71.566406 154.53125 C 70.492188 156.652344 69.644531 158.882812 69.054688 161.160156 C 67.738281 159.203125 66.152344 157.382812 64.382812 155.746094 C 64.996094 153.476562 65.863281 151.273438 66.933594 149.238281 Z M 63.730469 158.714844 C 65.523438 160.253906 67.132812 162 68.480469 163.902344 C 68.472656 163.964844 68.460938 164.023438 68.449219 164.085938 C 68.15625 166.730469 68.226562 169.4375 68.625 172.101562 C 67.214844 169.800781 65.527344 167.683594 63.597656 165.84375 C 63.542969 165.792969 63.488281 165.746094 63.433594 165.699219 C 63.222656 163.40625 63.339844 161.046875 63.730469 158.714844 Z M 61.730469 166.933594 C 62.359375 169.519531 63.351562 172.039062 64.636719 174.40625 C 62.523438 172.726562 60.214844 171.3125 57.769531 170.246094 C 57.703125 170.21875 57.636719 170.191406 57.570312 170.164062 C 56.589844 168.082031 55.886719 165.828125 55.457031 163.5 C 57.671875 164.335938 59.777344 165.425781 61.695312 166.75 C 61.707031 166.8125 61.71875 166.875 61.730469 166.933594 Z M 55.226562 153.5 C 57.386719 154.386719 59.464844 155.53125 61.394531 156.890625 C 61.109375 159.25 61.074219 161.636719 61.300781 163.976562 C 59.390625 162.589844 57.277344 161.421875 55.054688 160.488281 C 54.855469 158.144531 54.917969 155.78125 55.226562 153.5 Z M 52.640625 162.585938 C 53.179688 164.902344 53.960938 167.15625 54.976562 169.277344 C 52.707031 168.628906 50.324219 168.253906 47.914062 168.136719 C 46.925781 166 46.171875 163.757812 45.683594 161.511719 C 48.015625 161.605469 50.363281 161.96875 52.640625 162.585938 Z M 43.820312 177.765625 C 42.160156 176.097656 40.6875 174.246094 39.457031 172.300781 C 41.679688 171.589844 44.007812 171.132812 46.359375 170.933594 C 47.660156 172.925781 49.167969 174.773438 50.84375 176.421875 C 48.492188 176.585938 46.121094 177.050781 43.820312 177.765625 Z M 53.800781 176.375 C 53.730469 176.371094 53.65625 176.371094 53.585938 176.367188 C 51.953125 174.75 50.523438 172.867188 49.324219 170.828125 C 51.6875 170.855469 54.039062 171.160156 56.296875 171.75 C 56.328125 171.800781 56.359375 171.855469 56.390625 171.910156 C 57.867188 174.125 59.660156 176.152344 61.679688 177.9375 C 59.121094 177.082031 56.464844 176.542969 53.800781 176.375 Z M 64.328125 178.953125 C 62.214844 177.085938 60.355469 174.949219 58.902344 172.617188 C 61.484375 173.699219 63.9375 175.167969 66.160156 176.933594 C 67.75 179.324219 69.644531 181.511719 71.773438 183.402344 C 69.515625 181.609375 66.996094 180.105469 64.328125 178.953125 Z M 68.296875 178.78125 C 70.144531 180.523438 71.789062 182.472656 73.160156 184.5625 C 71.363281 182.867188 69.710938 180.914062 68.296875 178.78125 Z M 73.164062 184.566406 C 73.160156 184.5625 73.160156 184.5625 73.160156 184.5625 C 73.160156 184.5625 73.160156 184.5625 73.164062 184.5625 C 73.164062 184.5625 73.164062 184.5625 73.164062 184.566406 Z M 73.164062 184.566406 C 73.164062 184.566406 73.164062 184.566406 73.164062 184.5625 C 73.164062 184.566406 73.164062 184.566406 73.164062 184.566406 Z M 73.164062 184.558594 C 73.164062 184.558594 73.164062 184.558594 73.164062 184.5625 C 73.164062 184.558594 73.164062 184.558594 73.164062 184.558594 Z M 73.164062 184.558594 Z M 73.164062 184.558594 C 73.160156 184.558594 73.160156 184.554688 73.160156 184.554688 C 72.875 182.105469 72.867188 179.542969 73.152344 177.003906 C 73.449219 179.523438 73.453125 182.074219 73.164062 184.558594 Z M 73.164062 184.558594 Z M 73.164062 184.558594 C 73.164062 184.558594 73.164062 184.558594 73.164062 184.554688 C 73.164062 184.558594 73.164062 184.558594 73.164062 184.558594 Z M 73.164062 184.554688 C 73.164062 184.554688 73.164062 184.554688 73.164062 184.550781 C 73.734375 182.152344 74.601562 179.746094 75.738281 177.453125 C 75.152344 179.925781 74.289062 182.324219 73.164062 184.554688 Z M 73.164062 184.558594 C 73.164062 184.558594 73.164062 184.554688 73.164062 184.554688 C 73.164062 184.554688 73.164062 184.554688 73.167969 184.554688 C 73.164062 184.554688 73.164062 184.558594 73.164062 184.558594 Z M 73.167969 184.554688 C 73.167969 184.554688 73.164062 184.554688 73.164062 184.554688 C 73.164062 184.554688 73.167969 184.554688 73.167969 184.554688 Z M 73.167969 184.554688 C 73.167969 184.554688 73.167969 184.554688 73.167969 184.550781 C 74.523438 182.488281 76.164062 180.523438 78.015625 178.761719 C 76.621094 180.882812 74.984375 182.839844 73.167969 184.554688 Z M 73.167969 184.554688 Z M 73.167969 184.554688 Z M 73.167969 184.554688 C 73.167969 184.554688 73.171875 184.554688 73.171875 184.554688 C 73.171875 184.554688 73.171875 184.554688 73.167969 184.554688 Z M 73.171875 184.554688 C 76.46875 183.460938 79.625 181.808594 82.449219 179.710938 C 85.121094 178.816406 87.898438 178.273438 90.648438 178.183594 C 85.6875 181.953125 79.382812 184.195312 73.171875 184.554688 Z M 73.171875 184.554688 C 80.25 184.761719 87.574219 182.578125 93.265625 178.386719 C 93.324219 178.339844 93.378906 178.296875 93.4375 178.25 C 95.730469 178.441406 98.035156 178.964844 100.265625 179.753906 C 97.953125 181.648438 95.375 183.195312 92.640625 184.261719 C 86.476562 186.394531 79.421875 186.429688 73.171875 184.554688 Z M 91.566406 190.941406 C 85.046875 190.835938 78.40625 188.457031 73.171875 184.558594 C 79.753906 187.171875 87.382812 187.625 94.167969 185.632812 C 97.316406 184.632812 100.34375 182.984375 103.074219 180.914062 C 105.203125 181.914062 107.222656 183.144531 109.039062 184.554688 C 104.078125 188.390625 97.789062 190.796875 91.566406 190.941406 Z M 91.566406 190.941406 " fill-opacity="1" fill-rule="nonzero"/></g></svg>