<svg xmlns="http://www.w3.org/2000/svg" xmlns:xlink="http://www.w3.org/1999/xlink" width="500" zoomAndPan="magnify" viewBox="0 0 375 374.999991" height="500" preserveAspectRatio="xMidYMid meet" version="1.0"><defs><g/><clipPath id="fd9cc62048"><path d="M 82 201 L 184 201 L 184 258 L 82 258 Z M 82 201 " clip-rule="nonzero"/></clipPath><clipPath id="01946c2354"><path d="M 68.449219 95.601562 L 206.90625 135.171875 L 165.6875 279.398438 L 27.230469 239.828125 Z M 68.449219 95.601562 " clip-rule="nonzero"/></clipPath><clipPath id="1afac03f05"><path d="M 68.449219 95.601562 L 206.90625 135.171875 L 165.6875 279.398438 L 27.230469 239.828125 Z M 68.449219 95.601562 " clip-rule="nonzero"/></clipPath><clipPath id="6baabe9777"><path d="M 45 112 L 188 112 L 188 257 L 45 257 Z M 45 112 " clip-rule="nonzero"/></clipPath><clipPath id="e44bd6aeef"><path d="M 68.449219 95.601562 L 206.90625 135.171875 L 165.6875 279.398438 L 27.230469 239.828125 Z M 68.449219 95.601562 " clip-rule="nonzero"/></clipPath><clipPath id="22f3578462"><path d="M 68.449219 95.601562 L 206.90625 135.171875 L 165.6875 279.398438 L 27.230469 239.828125 Z M 68.449219 95.601562 " clip-rule="nonzero"/></clipPath><clipPath id="df7898ef7e"><path d="M 46 207 L 63 207 L 63 217 L 46 217 Z M 46 207 " clip-rule="nonzero"/></clipPath><clipPath id="7ed9e3144f"><path d="M 68.449219 95.601562 L 206.90625 135.171875 L 165.6875 279.398438 L 27.230469 239.828125 Z M 68.449219 95.601562 " clip-rule="nonzero"/></clipPath><clipPath id="3aed6df96b"><path d="M 68.449219 95.601562 L 206.90625 135.171875 L 165.6875 279.398438 L 27.230469 239.828125 Z M 68.449219 95.601562 " clip-rule="nonzero"/></clipPath><clipPath id="ec0e90aaf1"><path d="M 45 216 L 64 216 L 64 226 L 45 226 Z M 45 216 " clip-rule="nonzero"/></clipPath><clipPath id="efdebbe28f"><path d="M 68.449219 95.601562 L 206.90625 135.171875 L 165.6875 279.398438 L 27.230469 239.828125 Z M 68.449219 95.601562 " clip-rule="nonzero"/></clipPath><clipPath id="6a5e43c44f"><path d="M 68.449219 95.601562 L 206.90625 135.171875 L 165.6875 279.398438 L 27.230469 239.828125 Z M 68.449219 95.601562 " clip-rule="nonzero"/></clipPath><clipPath id="f21a76058e"><path d="M 48 225 L 65 225 L 65 235 L 48 235 Z M 48 225 " clip-rule="nonzero"/></clipPath><clipPath id="415dd5bef2"><path d="M 68.449219 95.601562 L 206.90625 135.171875 L 165.6875 279.398438 L 27.230469 239.828125 Z M 68.449219 95.601562 " clip-rule="nonzero"/></clipPath><clipPath id="bf4e89dd91"><path d="M 68.449219 95.601562 L 206.90625 135.171875 L 165.6875 279.398438 L 27.230469 239.828125 Z M 68.449219 95.601562 " clip-rule="nonzero"/></clipPath><clipPath id="22de2ab9be"><path d="M 53 234 L 68 234 L 68 245 L 53 245 Z M 53 234 " clip-rule="nonzero"/></clipPath><clipPath id="bf2d1f6a0d"><path d="M 68.449219 95.601562 L 206.90625 135.171875 L 165.6875 279.398438 L 27.230469 239.828125 Z M 68.449219 95.601562 " clip-rule="nonzero"/></clipPath><clipPath id="325f64197e"><path d="M 68.449219 95.601562 L 206.90625 135.171875 L 165.6875 279.398438 L 27.230469 239.828125 Z M 68.449219 95.601562 " clip-rule="nonzero"/></clipPath><clipPath id="f47f08cc26"><path d="M 75.511719 138.085938 L 158.761719 138.085938 L 158.761719 187.585938 L 75.511719 187.585938 Z M 75.511719 138.085938 " clip-rule="nonzero"/></clipPath></defs><rect x="-37.5" width="450" fill="#ffffff" y="-37.499999" height="449.999989" fill-opacity="1"/><rect x="-37.5" width="450" fill="#ffffff" y="-37.499999" height="449.999989" fill-opacity="1"/><g clip-path="url(#fd9cc62048)"><g clip-path="url(#01946c2354)"><g clip-path="url(#1afac03f05)"><path fill="#8c52ff" d="M 148.171875 240.894531 C 154.664062 234.5625 159.644531 226.5 162.316406 217.15625 C 163.199219 214.066406 163.792969 210.964844 164.113281 207.878906 C 158.683594 218.9375 149.5625 227.398438 138.734375 232.15625 C 132.46875 234.910156 125.171875 231.902344 122.707031 225.519531 L 118.109375 213.601562 C 117.347656 211.617188 115.695312 210.109375 113.652344 209.527344 L 85.464844 201.472656 C 85.457031 201.46875 85.453125 201.46875 85.445312 201.46875 C 83.519531 200.929688 81.691406 202.601562 82.0625 204.574219 L 82.546875 207.128906 C 83.445312 211.878906 86.761719 215.8125 91.292969 217.503906 L 92.925781 218.113281 L 100.070312 220.777344 C 102.09375 221.53125 103.632812 223.210938 104.210938 225.289062 L 105.976562 231.660156 L 106.964844 235.226562 L 112.5 255.207031 C 112.601562 255.5625 112.757812 255.894531 112.957031 256.191406 C 113.535156 257.046875 114.492188 257.605469 115.566406 257.644531 C 115.574219 257.644531 115.582031 257.644531 115.589844 257.648438 C 144.464844 258.699219 171.636719 242.261719 183.902344 215.675781 C 176.035156 228.863281 162.925781 237.941406 148.171875 240.894531 " fill-opacity="1" fill-rule="nonzero"/></g></g></g><g clip-path="url(#6baabe9777)"><g clip-path="url(#e44bd6aeef)"><g clip-path="url(#22f3578462)"><path fill="#20c91c" d="M 101.871094 225.9375 C 101.503906 224.609375 100.515625 223.53125 99.222656 223.046875 L 90.445312 219.773438 C 85.152344 217.800781 81.214844 213.128906 80.164062 207.578125 L 79.707031 205.160156 C 79.382812 203.4375 79.878906 201.632812 81.128906 200.410156 C 82.421875 199.144531 84.238281 198.660156 85.976562 199.097656 L 86.128906 199.140625 L 95.15625 201.71875 C 93.539062 196.234375 88.984375 192.105469 83.351562 191.050781 L 73.722656 189.246094 C 69.597656 188.472656 66.777344 184.671875 67.171875 180.496094 C 67.464844 177.398438 68.042969 174.285156 68.929688 171.1875 C 73.421875 155.472656 84.777344 143.585938 98.8125 137.84375 C 85.324219 142.074219 73.351562 150.535156 64.882812 162.125 C 78.09375 132.148438 111.730469 115.761719 144.113281 125.015625 C 164.160156 130.746094 179.421875 145.070312 187.046875 162.847656 C 179.847656 140.792969 162.203125 122.585938 138.253906 115.675781 C 99.917969 104.613281 59.585938 126.902344 48.5625 165.253906 C 44.683594 178.753906 44.910156 192.457031 48.496094 205.035156 C 48.570312 205.300781 48.644531 205.566406 48.722656 205.832031 L 58.46875 206.910156 C 62.820312 207.394531 65.089844 212.386719 62.546875 215.953125 C 62.476562 216.050781 62.433594 216.101562 62.433594 216.101562 C 67.796875 219.988281 65.121094 225.527344 65.121094 225.527344 C 69.714844 229.449219 66.117188 233.800781 66.117188 233.800781 C 67.765625 235.105469 67.988281 236.804688 68.015625 237.347656 C 68.03125 237.625 68.054688 237.898438 68.082031 238.175781 L 69.046875 248.484375 C 69.210938 250.257812 70.746094 252.105469 72.460938 252.59375 C 74.617188 253.214844 76.730469 251.480469 76.546875 249.242188 L 76.144531 244.257812 L 75.605469 237.605469 C 75.566406 237.140625 75.984375 236.765625 76.449219 236.859375 C 76.753906 236.925781 76.972656 237.199219 77.007812 237.507812 L 77.933594 245.492188 L 78.617188 251.402344 C 78.851562 253.4375 80.550781 255.050781 82.597656 255.039062 C 85.054688 255.027344 86.90625 252.8125 86.488281 250.394531 C 86.488281 250.390625 86.488281 250.390625 86.488281 250.386719 L 84.265625 237.621094 C 84.167969 237.074219 84.648438 236.597656 85.195312 236.699219 C 85.511719 236.757812 85.761719 237 85.832031 237.3125 L 88.921875 251.515625 L 89.300781 253.277344 C 89.679688 255.011719 91.226562 256.300781 93 256.226562 C 94.378906 256.171875 95.523438 255.355469 96.085938 254.226562 C 96.429688 253.539062 96.558594 252.734375 96.394531 251.914062 L 94.085938 240.414062 C 93.984375 239.910156 94.3125 239.390625 94.828125 239.332031 C 95.28125 239.28125 95.6875 239.582031 95.777344 240.015625 L 98.464844 252.722656 C 98.683594 253.75 99.191406 254.640625 99.882812 255.332031 C 101.035156 256.484375 102.703125 257.078125 104.421875 256.796875 C 104.753906 256.742188 105.070312 256.652344 105.371094 256.542969 C 107.875 255.628906 109.351562 252.917969 108.609375 250.246094 L 101.871094 225.9375 " fill-opacity="1" fill-rule="nonzero"/></g></g></g><g clip-path="url(#df7898ef7e)"><g clip-path="url(#7ed9e3144f)"><g clip-path="url(#3aed6df96b)"><path fill="#8c52ff" d="M 50.160156 215.6875 L 57.820312 216.5625 C 60.117188 216.824219 62.195312 215.175781 62.457031 212.878906 C 62.71875 210.582031 61.070312 208.503906 58.773438 208.242188 L 51.113281 207.363281 C 48.816406 207.101562 46.738281 208.75 46.476562 211.050781 C 46.214844 213.347656 47.863281 215.421875 50.160156 215.6875 " fill-opacity="1" fill-rule="nonzero"/></g></g></g><g clip-path="url(#ec0e90aaf1)"><g clip-path="url(#efdebbe28f)"><g clip-path="url(#6a5e43c44f)"><path fill="#8c52ff" d="M 63.921875 221.871094 C 64.183594 219.574219 62.535156 217.496094 60.238281 217.234375 L 49.710938 216.289062 C 47.414062 216.027344 45.339844 217.675781 45.074219 219.976562 C 44.8125 222.273438 46.460938 224.347656 48.761719 224.613281 L 59.285156 225.558594 C 61.582031 225.820312 63.660156 224.167969 63.921875 221.871094 " fill-opacity="1" fill-rule="nonzero"/></g></g></g><g clip-path="url(#f21a76058e)"><g clip-path="url(#415dd5bef2)"><g clip-path="url(#bf4e89dd91)"><path fill="#8c52ff" d="M 64.921875 231.125 C 65.183594 228.824219 63.535156 226.75 61.234375 226.488281 L 53.578125 225.609375 C 51.28125 225.347656 49.203125 226.996094 48.941406 229.296875 C 48.675781 231.59375 50.328125 233.667969 52.625 233.933594 L 60.285156 234.808594 C 62.582031 235.070312 64.65625 233.421875 64.921875 231.125 " fill-opacity="1" fill-rule="nonzero"/></g></g></g><g clip-path="url(#22de2ab9be)"><g clip-path="url(#bf2d1f6a0d)"><g clip-path="url(#325f64197e)"><path fill="#8c52ff" d="M 64.09375 235.710938 L 57.816406 234.949219 C 55.515625 234.6875 53.441406 236.335938 53.179688 238.632812 C 52.914062 240.933594 54.566406 243.007812 56.863281 243.273438 L 63.140625 244.03125 C 65.4375 244.292969 67.515625 242.644531 67.777344 240.347656 C 68.039062 238.050781 66.390625 235.972656 64.09375 235.710938 " fill-opacity="1" fill-rule="nonzero"/></g></g></g><g fill="#20c91c" fill-opacity="1"><g transform="translate(150.307824, 203.624987)"><g><path d="M 4.390625 4.90625 C 0.285156 4.90625 -1.765625 2.429688 -1.765625 -2.515625 C -1.765625 -4.898438 -1.351562 -7.085938 -0.53125 -9.078125 C 0.28125 -11.078125 1.3125 -12.078125 2.5625 -12.078125 C 3.019531 -12.078125 3.550781 -11.925781 4.15625 -11.625 C 2.789062 -8.164062 2.109375 -5.128906 2.109375 -2.515625 C 2.109375 -0.796875 2.410156 0.535156 3.015625 1.484375 C 3.628906 2.429688 4.523438 2.90625 5.703125 2.90625 C 6.722656 2.90625 7.613281 2.46875 8.375 1.59375 C 9.132812 0.71875 9.929688 -0.835938 10.765625 -3.078125 C 12.097656 -6.765625 13.628906 -12.253906 15.359375 -19.546875 C 17.085938 -26.847656 18.425781 -33.003906 19.375 -38.015625 C 16.5625 -37.984375 14.382812 -37.890625 12.84375 -37.734375 C 11.3125 -37.578125 9.648438 -37.289062 7.859375 -36.875 C 8.285156 -39.570312 11.382812 -40.921875 17.15625 -40.921875 C 19.132812 -40.921875 21.242188 -40.785156 23.484375 -40.515625 C 25.722656 -40.253906 27.582031 -39.992188 29.0625 -39.734375 C 28.6875 -39.085938 28.070312 -38.648438 27.21875 -38.421875 C 26.363281 -38.191406 25.519531 -38.078125 24.6875 -38.078125 L 20.640625 -38.015625 C 21.015625 -37.710938 21.304688 -37.304688 21.515625 -36.796875 C 21.722656 -36.285156 21.828125 -35.800781 21.828125 -35.34375 C 21.828125 -34.351562 21.4375 -31.832031 20.65625 -27.78125 C 19.882812 -23.738281 18.878906 -19.4375 17.640625 -14.875 C 16.398438 -10.3125 15.097656 -6.515625 13.734375 -3.484375 C 12.328125 -0.285156 10.882812 1.910156 9.40625 3.109375 C 7.925781 4.304688 6.253906 4.90625 4.390625 4.90625 Z M 4.390625 4.90625 "/></g></g></g><g fill="#20c91c" fill-opacity="1"><g transform="translate(173.734816, 203.624987)"><g><path d="M 3.9375 1.828125 C 2.375 1.828125 1.234375 1.347656 0.515625 0.390625 C -0.203125 -0.554688 -0.5625 -1.804688 -0.5625 -3.359375 C -0.5625 -4.921875 -0.238281 -6.554688 0.40625 -8.265625 C 1.050781 -9.972656 1.882812 -11.394531 2.90625 -12.53125 C 3.9375 -13.675781 4.960938 -14.25 5.984375 -14.25 C 6.328125 -14.25 6.726562 -14.15625 7.1875 -13.96875 C 6.726562 -13.582031 6.175781 -12.742188 5.53125 -11.453125 C 4.882812 -10.160156 4.320312 -8.78125 3.84375 -7.3125 C 3.375 -5.851562 3.140625 -4.671875 3.140625 -3.765625 C 3.140625 -1.597656 3.820312 -0.515625 5.1875 -0.515625 C 5.988281 -0.515625 6.9375 -0.929688 8.03125 -1.765625 C 9.132812 -2.597656 10.21875 -3.703125 11.28125 -5.078125 C 10.21875 -5.953125 9.390625 -7.09375 8.796875 -8.5 C 8.210938 -9.90625 7.921875 -11.363281 7.921875 -12.875 C 7.921875 -14.851562 8.421875 -16.546875 9.421875 -17.953125 C 10.429688 -19.359375 11.796875 -20.0625 13.515625 -20.0625 C 14.953125 -20.0625 15.960938 -19.671875 16.546875 -18.890625 C 17.140625 -18.117188 17.4375 -17.046875 17.4375 -15.671875 C 17.4375 -14.234375 17.082031 -12.609375 16.375 -10.796875 C 15.675781 -8.992188 14.757812 -7.238281 13.625 -5.53125 C 14.3125 -5.144531 15.03125 -4.953125 15.78125 -4.953125 C 16.882812 -4.953125 18.023438 -5.285156 19.203125 -5.953125 C 20.378906 -6.617188 21.273438 -7.65625 21.890625 -9.0625 L 22.578125 -8.5 C 21.847656 -6.820312 20.816406 -5.582031 19.484375 -4.78125 C 18.160156 -3.988281 16.796875 -3.59375 15.390625 -3.59375 C 14.359375 -3.59375 13.445312 -3.78125 12.65625 -4.15625 C 11.289062 -2.375 9.835938 -0.929688 8.296875 0.171875 C 6.753906 1.273438 5.300781 1.828125 3.9375 1.828125 Z M 12.3125 -6.5625 C 13.300781 -8.039062 14.097656 -9.546875 14.703125 -11.078125 C 15.316406 -12.617188 15.625 -14.035156 15.625 -15.328125 C 15.625 -16.390625 15.460938 -17.1875 15.140625 -17.71875 C 14.816406 -18.257812 14.40625 -18.53125 13.90625 -18.53125 C 13.375 -18.53125 12.832031 -18.269531 12.28125 -17.75 C 11.726562 -17.238281 11.269531 -16.535156 10.90625 -15.640625 C 10.550781 -14.753906 10.375 -13.78125 10.375 -12.71875 C 10.375 -11.53125 10.535156 -10.394531 10.859375 -9.3125 C 11.179688 -8.226562 11.664062 -7.3125 12.3125 -6.5625 Z M 12.3125 -6.5625 "/></g></g></g><g fill="#20c91c" fill-opacity="1"><g transform="translate(194.539808, 203.624987)"><g><path d="M 5.296875 4.15625 C 3.359375 4.15625 1.894531 3.519531 0.90625 2.25 C -0.0703125 0.976562 -0.5625 -0.773438 -0.5625 -3.015625 C -0.5625 -6.628906 0.570312 -11.457031 2.84375 -17.5 C 5.125 -23.539062 7.695312 -28.914062 10.5625 -33.625 C 13.4375 -38.34375 15.632812 -40.703125 17.15625 -40.703125 C 17.726562 -40.703125 18.175781 -40.328125 18.5 -39.578125 C 18.820312 -38.835938 18.984375 -38.015625 18.984375 -37.109375 C 18.984375 -35.316406 18.351562 -32.9375 17.09375 -29.96875 C 15.84375 -27.007812 14.207031 -24.160156 12.1875 -21.421875 C 10.175781 -18.691406 8.109375 -16.679688 5.984375 -15.390625 C 5.492188 -14.472656 4.914062 -12.757812 4.25 -10.25 C 3.582031 -7.75 3.25 -5.453125 3.25 -3.359375 C 3.25 0.210938 4.296875 2 6.390625 2 C 7.484375 2 8.617188 1.550781 9.796875 0.65625 C 10.984375 -0.238281 11.9375 -1.390625 12.65625 -2.796875 C 11.320312 -3.472656 10.296875 -4.484375 9.578125 -5.828125 C 8.859375 -7.179688 8.5 -8.617188 8.5 -10.140625 C 8.5 -11.929688 8.960938 -13.382812 9.890625 -14.5 C 10.816406 -15.625 11.945312 -16.1875 13.28125 -16.1875 C 14.382812 -16.1875 15.257812 -15.726562 15.90625 -14.8125 C 16.550781 -13.90625 16.875 -12.613281 16.875 -10.9375 C 16.875 -8.4375 16.207031 -5.851562 14.875 -3.1875 C 15.332031 -3.070312 15.828125 -3.015625 16.359375 -3.015625 C 18.140625 -3.015625 19.570312 -3.582031 20.65625 -4.71875 C 21.738281 -5.863281 22.738281 -7.367188 23.65625 -9.234375 L 24.34375 -8.5 C 23.351562 -6.0625 22.164062 -4.367188 20.78125 -3.421875 C 19.394531 -2.472656 17.863281 -2 16.1875 -2 C 15.539062 -2 14.929688 -2.054688 14.359375 -2.171875 C 13.222656 -0.265625 11.894531 1.265625 10.375 2.421875 C 8.851562 3.578125 7.160156 4.15625 5.296875 4.15625 Z M 6.609375 -17.609375 C 8.242188 -18.898438 9.867188 -20.769531 11.484375 -23.21875 C 13.097656 -25.675781 14.425781 -28.109375 15.46875 -30.515625 C 16.519531 -32.929688 17.046875 -34.632812 17.046875 -35.625 C 17.046875 -35.925781 16.96875 -36.078125 16.8125 -36.078125 C 16.394531 -36.078125 15.507812 -35.109375 14.15625 -33.171875 C 12.8125 -31.234375 11.414062 -28.828125 9.96875 -25.953125 C 8.53125 -23.085938 7.410156 -20.304688 6.609375 -17.609375 Z M 13.21875 -3.9375 C 14.09375 -5.789062 14.53125 -7.707031 14.53125 -9.6875 C 14.53125 -10.976562 14.347656 -12.015625 13.984375 -12.796875 C 13.628906 -13.578125 13.1875 -13.96875 12.65625 -13.96875 C 12.082031 -13.96875 11.578125 -13.566406 11.140625 -12.765625 C 10.703125 -11.972656 10.484375 -11.003906 10.484375 -9.859375 C 10.484375 -8.722656 10.710938 -7.601562 11.171875 -6.5 C 11.628906 -5.394531 12.3125 -4.539062 13.21875 -3.9375 Z M 13.21875 -3.9375 "/></g></g></g><g fill="#20c91c" fill-opacity="1"><g transform="translate(216.997795, 203.624987)"><g><path d="M 11.96875 4.953125 C 10.789062 4.953125 9.675781 4.609375 8.625 3.921875 C 7.582031 3.242188 7.0625 2.070312 7.0625 0.40625 C 7.0625 -0.625 7.269531 -1.945312 7.6875 -3.5625 C 8.113281 -5.175781 8.78125 -7.425781 9.6875 -10.3125 C 11.164062 -15.03125 12.296875 -18.992188 13.078125 -22.203125 C 13.859375 -25.410156 14.25 -28.5 14.25 -31.46875 C 14.25 -33.25 14.191406 -34.671875 14.078125 -35.734375 C 13.960938 -36.796875 13.65625 -37.675781 13.15625 -38.375 C 12.664062 -39.082031 11.890625 -39.4375 10.828125 -39.4375 C 9.535156 -39.4375 8.441406 -38.929688 7.546875 -37.921875 C 6.660156 -36.921875 6.003906 -35.679688 5.578125 -34.203125 C 5.160156 -32.722656 4.953125 -31.28125 4.953125 -29.875 C 4.953125 -28.613281 5.125 -27.585938 5.46875 -26.796875 C 4.0625 -26.796875 3.035156 -27.171875 2.390625 -27.921875 C 1.742188 -28.679688 1.421875 -29.671875 1.421875 -30.890625 C 1.421875 -32.453125 1.90625 -34.019531 2.875 -35.59375 C 3.84375 -37.175781 5.132812 -38.476562 6.75 -39.5 C 8.363281 -40.53125 10.066406 -41.046875 11.859375 -41.046875 C 14.171875 -41.046875 15.914062 -40.140625 17.09375 -38.328125 C 18.269531 -36.523438 18.859375 -34.046875 18.859375 -30.890625 C 18.859375 -28.117188 18.476562 -25.191406 17.71875 -22.109375 C 16.96875 -19.035156 15.890625 -15.332031 14.484375 -11 C 13.492188 -8 12.75 -5.566406 12.25 -3.703125 C 11.757812 -1.835938 11.515625 -0.28125 11.515625 0.96875 C 11.515625 1.6875 11.628906 2.234375 11.859375 2.609375 C 12.085938 2.992188 12.503906 3.1875 13.109375 3.1875 C 15.203125 3.1875 17.863281 1.191406 21.09375 -2.796875 C 24.320312 -6.785156 27.140625 -11.492188 29.546875 -16.921875 C 31.960938 -22.359375 33.171875 -27.054688 33.171875 -31.015625 C 33.171875 -32.796875 32.894531 -34.148438 32.34375 -35.078125 C 31.789062 -36.015625 31.019531 -36.632812 30.03125 -36.9375 C 30.570312 -37.8125 31.125 -38.46875 31.6875 -38.90625 C 32.257812 -39.34375 32.8125 -39.5625 33.34375 -39.5625 C 34.257812 -39.5625 35.066406 -39.007812 35.765625 -37.90625 C 36.472656 -36.800781 36.828125 -35.242188 36.828125 -33.234375 C 36.828125 -29.160156 35.398438 -24.054688 32.546875 -17.921875 C 29.691406 -11.785156 26.296875 -6.4375 22.359375 -1.875 C 18.429688 2.675781 14.96875 4.953125 11.96875 4.953125 Z M 11.96875 4.953125 "/></g></g></g><g fill="#20c91c" fill-opacity="1"><g transform="translate(253.021779, 203.624987)"><g><path d="M 10.9375 -24.625 C 10.257812 -24.625 9.703125 -24.785156 9.265625 -25.109375 C 8.828125 -25.429688 8.609375 -25.894531 8.609375 -26.5 C 8.609375 -27.257812 9.0625 -27.941406 9.96875 -28.546875 C 10.882812 -29.160156 11.816406 -29.46875 12.765625 -29.46875 C 14.023438 -29.46875 14.65625 -28.878906 14.65625 -27.703125 C 14.65625 -26.984375 14.265625 -26.289062 13.484375 -25.625 C 12.703125 -24.957031 11.851562 -24.625 10.9375 -24.625 Z M 4.109375 1.484375 C 2.703125 1.484375 1.617188 1.035156 0.859375 0.140625 C 0.0976562 -0.753906 -0.28125 -1.90625 -0.28125 -3.3125 C -0.28125 -4.789062 0.144531 -6.835938 1 -9.453125 C 1.851562 -12.078125 2.914062 -14.378906 4.1875 -16.359375 C 5.457031 -18.335938 6.703125 -19.328125 7.921875 -19.328125 C 8.265625 -19.328125 8.554688 -19.210938 8.796875 -18.984375 C 9.046875 -18.753906 9.171875 -18.445312 9.171875 -18.0625 C 9.171875 -17.53125 8.566406 -16.257812 7.359375 -14.25 C 6.097656 -12.15625 5.097656 -10.28125 4.359375 -8.625 C 3.617188 -6.976562 3.25 -5.414062 3.25 -3.9375 C 3.25 -2.601562 3.46875 -1.695312 3.90625 -1.21875 C 4.34375 -0.75 5.054688 -0.515625 6.046875 -0.515625 C 9.003906 -0.515625 11.925781 -3.421875 14.8125 -9.234375 L 15.328125 -8.65625 C 14.265625 -5.46875 12.695312 -2.976562 10.625 -1.1875 C 8.5625 0.59375 6.390625 1.484375 4.109375 1.484375 Z M 4.109375 1.484375 "/></g></g></g><g fill="#20c91c" fill-opacity="1"><g transform="translate(266.758774, 203.624987)"><g><path d="M 6.15625 2.515625 C 3.914062 2.515625 2.195312 1.894531 1 0.65625 C -0.195312 -0.582031 -0.796875 -2.171875 -0.796875 -4.109375 C -0.796875 -6.347656 -0.0546875 -8.757812 1.421875 -11.34375 C 2.898438 -13.925781 4.769531 -16.097656 7.03125 -17.859375 C 9.300781 -19.628906 11.519531 -20.515625 13.6875 -20.515625 C 16.039062 -20.515625 17.21875 -19.359375 17.21875 -17.046875 C 17.21875 -15.179688 16.515625 -13.441406 15.109375 -11.828125 C 13.703125 -10.210938 11.894531 -8.890625 9.6875 -7.859375 C 7.488281 -6.835938 5.285156 -6.210938 3.078125 -5.984375 C 2.921875 -5.335938 2.84375 -4.65625 2.84375 -3.9375 C 2.84375 -2.5625 3.1875 -1.414062 3.875 -0.5 C 4.5625 0.40625 5.722656 0.859375 7.359375 0.859375 C 9.671875 0.859375 12.003906 -0.109375 14.359375 -2.046875 C 16.710938 -3.984375 18.632812 -6.378906 20.125 -9.234375 L 20.8125 -8.71875 C 19.289062 -5.332031 17.179688 -2.613281 14.484375 -0.5625 C 11.785156 1.488281 9.007812 2.515625 6.15625 2.515625 Z M 3.359375 -7.0625 C 4.953125 -7.632812 6.625 -8.429688 8.375 -9.453125 C 10.125 -10.484375 11.613281 -11.691406 12.84375 -13.078125 C 14.082031 -14.460938 14.703125 -15.914062 14.703125 -17.4375 C 14.703125 -17.894531 14.613281 -18.226562 14.4375 -18.4375 C 14.269531 -18.644531 13.960938 -18.75 13.515625 -18.75 C 12.328125 -18.75 11.039062 -18.160156 9.65625 -16.984375 C 8.269531 -15.804688 7 -14.304688 5.84375 -12.484375 C 4.6875 -10.660156 3.859375 -8.851562 3.359375 -7.0625 Z M 3.359375 -7.0625 "/></g></g><g transform="translate(285.739772, 203.624987)"><g><path d="M 4.84375 2.625 C 1.457031 2.625 -0.234375 0.742188 -0.234375 -3.015625 C -0.234375 -4.648438 0.0546875 -6.675781 0.640625 -9.09375 C 1.234375 -11.507812 2.046875 -14.066406 3.078125 -16.765625 C 2.160156 -16.910156 1.476562 -17.0625 1.03125 -17.21875 L 1.03125 -18.234375 C 2.394531 -18.085938 3.226562 -18.015625 3.53125 -18.015625 C 5.207031 -22.347656 7.003906 -26.097656 8.921875 -29.265625 C 10.835938 -32.441406 12.347656 -34.03125 13.453125 -34.03125 C 13.753906 -34.03125 14.03125 -33.914062 14.28125 -33.6875 C 14.53125 -33.457031 14.65625 -33.15625 14.65625 -32.78125 C 14.65625 -32.28125 14.414062 -31.554688 13.9375 -30.609375 C 13.457031 -29.660156 12.648438 -28.195312 11.515625 -26.21875 C 11.328125 -25.84375 10.738281 -24.789062 9.75 -23.0625 C 8.757812 -21.332031 7.863281 -19.59375 7.0625 -17.84375 L 9.171875 -17.84375 C 12.328125 -17.84375 15.046875 -17.957031 17.328125 -18.1875 L 17.328125 -17.15625 C 13.179688 -16.695312 9.835938 -16.46875 7.296875 -16.46875 L 6.4375 -16.46875 C 4.351562 -11.6875 3.3125 -7.546875 3.3125 -4.046875 C 3.3125 -2.410156 3.554688 -1.238281 4.046875 -0.53125 C 4.535156 0.164062 5.351562 0.515625 6.5 0.515625 C 8.4375 0.515625 10.351562 -0.347656 12.25 -2.078125 C 14.15625 -3.804688 15.847656 -6.191406 17.328125 -9.234375 L 18.0625 -8.65625 C 16.65625 -5.351562 14.753906 -2.644531 12.359375 -0.53125 C 9.972656 1.570312 7.46875 2.625 4.84375 2.625 Z M 4.84375 2.625 "/></g></g></g><g clip-path="url(#f47f08cc26)"><path fill="#8c52ff" d="M 156.972656 177.589844 C 154.6875 175.855469 152.132812 174.410156 149.429688 173.304688 C 151.601562 171.3125 153.511719 169.054688 155.042969 166.675781 L 156.109375 164.789062 L 154.078125 164.027344 C 151.339844 163.179688 148.445312 162.695312 145.527344 162.578125 C 146.886719 159.964844 147.910156 157.191406 148.535156 154.429688 L 148.890625 152.292969 L 146.726562 152.273438 C 143.859375 152.410156 140.972656 152.945312 138.191406 153.835938 C 138.574219 150.914062 138.589844 147.957031 138.230469 145.148438 L 137.835938 143.019531 L 135.792969 143.742188 C 133.148438 144.851562 130.617188 146.339844 128.308594 148.128906 C 127.667969 145.25 126.671875 142.46875 125.375 139.953125 L 124.273438 138.085938 L 122.601562 139.464844 C 120.496094 141.410156 118.628906 143.675781 117.070312 146.144531 C 115.484375 143.660156 113.59375 141.390625 111.515625 139.464844 L 109.84375 138.089844 L 108.742188 139.957031 C 107.429688 142.507812 106.449219 145.273438 105.832031 148.125 C 103.492188 146.335938 100.9375 144.84375 98.328125 143.75 L 96.285156 143.027344 L 95.890625 145.15625 C 95.527344 148.003906 95.554688 150.9375 95.945312 153.832031 C 93.136719 152.949219 90.226562 152.421875 87.398438 152.285156 L 85.234375 152.304688 L 85.589844 154.441406 C 86.222656 157.242188 87.25 159.988281 88.609375 162.574219 C 85.667969 162.703125 82.753906 163.203125 80.050781 164.042969 L 78.019531 164.804688 L 79.085938 166.691406 C 80.636719 169.101562 82.546875 171.335938 84.707031 173.296875 C 81.984375 174.425781 79.417969 175.894531 77.164062 177.605469 L 75.515625 179.015625 L 77.164062 180.421875 C 82.949219 184.820312 90.46875 187.359375 97.71875 187.210938 C 104.773438 186.753906 111.78125 183.722656 117.066406 179.015625 C 111.636719 183.0625 104.433594 185.695312 97.640625 185.375 C 91.824219 185.097656 85.859375 182.625 81.195312 179.015625 C 83.042969 177.585938 85.074219 176.359375 87.214844 175.371094 C 89.925781 177.402344 92.933594 179.027344 96.082031 180.097656 C 102.863281 182.082031 110.488281 181.628906 117.066406 179.015625 C 110.578125 180.960938 102.910156 180.972656 96.636719 178.347656 C 94.261719 177.355469 92.007812 175.945312 89.960938 174.257812 C 92.195312 173.476562 94.507812 172.953125 96.832031 172.738281 C 96.878906 172.777344 96.925781 172.816406 96.972656 172.855469 C 102.667969 177.039062 109.988281 179.222656 117.0625 179.011719 C 110.945312 178.660156 104.457031 176.488281 99.578125 172.660156 C 102.375 172.792969 105.179688 173.339844 107.875 174.234375 C 110.671875 176.300781 113.796875 177.929688 117.058594 179.011719 C 114.792969 178.035156 112.570312 176.757812 110.511719 175.242188 C 112.84375 176.246094 115.054688 177.515625 117.058594 179.011719 C 117.0625 179.011719 117.0625 179.011719 117.0625 179.011719 C 117.0625 179.011719 117.0625 179.011719 117.066406 179.015625 C 117.0625 179.011719 117.0625 179.011719 117.0625 179.011719 C 117.0625 179.011719 117.066406 179.015625 117.066406 179.015625 C 117.066406 179.011719 117.0625 179.011719 117.0625 179.011719 C 117.0625 179.011719 117.0625 179.007812 117.0625 179.007812 C 117.0625 179.007812 117.0625 179.003906 117.0625 179.003906 C 117.0625 179.003906 117.0625 179.003906 117.0625 179 C 117.066406 179 117.066406 179 117.066406 179 C 117.070312 179 117.070312 179 117.070312 179 C 122.359375 183.710938 129.375 186.746094 136.433594 187.195312 C 143.601562 187.492188 151.277344 184.734375 156.972656 180.40625 L 158.617188 179 Z M 150.773438 166.730469 C 149.527344 168.703125 148.039062 170.554688 146.363281 172.214844 C 144.085938 171.527344 141.746094 171.078125 139.402344 170.894531 C 141.097656 169.253906 142.613281 167.375 143.921875 165.347656 C 146.261719 165.558594 148.582031 166.03125 150.773438 166.730469 Z M 118.453125 177.835938 C 120.609375 175.921875 122.527344 173.699219 124.128906 171.273438 C 126.332031 169.519531 128.757812 168.058594 131.308594 167.03125 C 129.792969 169.386719 127.921875 171.546875 125.796875 173.429688 C 123.167969 174.578125 120.683594 176.066406 118.453125 177.835938 Z M 123.605469 175.210938 C 121.570312 176.730469 119.363281 178.011719 117.066406 179 C 117.066406 179 117.070312 178.996094 117.070312 178.996094 C 119.046875 177.523438 121.261719 176.238281 123.605469 175.210938 Z M 117.503906 168.542969 C 118.066406 165.785156 118.984375 163.105469 120.28125 160.679688 C 120.632812 163.457031 120.585938 166.316406 120.167969 169.125 C 118.894531 171.695312 117.949219 174.429688 117.375 177.21875 C 117.796875 174.367188 117.839844 171.433594 117.503906 168.542969 Z M 121.058594 169.324219 C 122.527344 166.921875 124.308594 164.71875 126.355469 162.882812 C 125.738281 165.613281 124.714844 168.285156 123.363281 170.78125 C 121.285156 172.761719 119.460938 175.007812 117.96875 177.433594 C 119.339844 174.894531 120.382812 172.152344 121.058594 169.324219 Z M 133.839844 166.328125 C 133.878906 166.269531 133.917969 166.207031 133.953125 166.144531 C 136.175781 165.539062 138.519531 165.242188 140.882812 165.222656 C 139.675781 167.257812 138.238281 169.140625 136.597656 170.800781 C 136.539062 170.804688 136.476562 170.800781 136.414062 170.804688 C 133.757812 170.976562 131.105469 171.511719 128.550781 172.367188 C 130.570312 170.578125 132.363281 168.550781 133.839844 166.328125 Z M 137.628906 156.988281 C 139.902344 156.386719 142.242188 156.035156 144.539062 155.945312 C 144.042969 158.222656 143.277344 160.46875 142.273438 162.605469 C 139.898438 162.734375 137.542969 163.113281 135.28125 163.742188 C 136.3125 161.625 137.097656 159.339844 137.628906 156.988281 Z M 134.996094 147.9375 C 135.308594 150.25 135.359375 152.621094 135.144531 154.972656 C 132.957031 155.90625 130.875 157.070312 128.960938 158.433594 C 129.207031 156.089844 129.160156 153.675781 128.859375 151.285156 C 130.789062 149.9375 132.867188 148.808594 134.996094 147.9375 Z M 128.492188 161.355469 C 128.507812 161.285156 128.523438 161.214844 128.535156 161.144531 C 130.417969 159.816406 132.515625 158.734375 134.734375 157.910156 C 134.292969 160.230469 133.589844 162.496094 132.617188 164.617188 C 132.558594 164.636719 132.5 164.660156 132.441406 164.679688 C 130.003906 165.75 127.695312 167.164062 125.585938 168.839844 C 126.875 166.46875 127.863281 163.949219 128.492188 161.355469 Z M 126.753906 160.167969 C 126.710938 160.207031 126.660156 160.246094 126.613281 160.285156 C 124.691406 162.125 123.003906 164.242188 121.597656 166.539062 C 121.996094 163.871094 122.0625 161.164062 121.765625 158.511719 C 121.757812 158.441406 121.746094 158.371094 121.734375 158.296875 C 123.046875 156.40625 124.652344 154.671875 126.453125 153.136719 C 126.835938 155.472656 126.945312 157.839844 126.753906 160.167969 Z M 123.289062 143.679688 C 124.375 145.746094 125.230469 147.957031 125.832031 150.238281 C 124.097656 151.867188 122.539062 153.671875 121.207031 155.609375 C 120.636719 153.320312 119.769531 151.066406 118.664062 148.921875 C 120.019531 147 121.585938 145.226562 123.289062 143.679688 Z M 119.726562 157.988281 C 119.699219 158.042969 119.667969 158.097656 119.636719 158.148438 C 118.457031 160.539062 117.597656 163.101562 117.058594 165.742188 C 116.519531 163.097656 115.660156 160.53125 114.472656 158.140625 C 114.441406 158.078125 114.40625 158.015625 114.371094 157.949219 C 114.957031 155.726562 115.871094 153.546875 117.039062 151.488281 C 118.195312 153.550781 119.109375 155.738281 119.726562 157.988281 Z M 117.058594 179.007812 C 117.058594 179.007812 117.058594 179.003906 117.058594 179.003906 C 117.058594 179.003906 117.058594 179.003906 117.058594 179.007812 Z M 117.058594 179.007812 C 117.058594 179.007812 117.0625 179.007812 117.0625 179.007812 C 117.058594 179.007812 117.058594 179.007812 117.058594 179.007812 Z M 117.058594 179.003906 C 117.058594 179.003906 117.058594 179.003906 117.058594 179 C 115.949219 176.796875 115.066406 174.394531 114.464844 171.910156 C 115.605469 174.179688 116.484375 176.570312 117.058594 179.003906 Z M 116.15625 177.4375 C 114.644531 174.980469 112.789062 172.707031 110.675781 170.710938 C 109.332031 168.234375 108.316406 165.589844 107.75 162.902344 C 109.804688 164.800781 111.601562 167.023438 113.089844 169.441406 C 113.765625 172.230469 114.800781 174.933594 116.15625 177.4375 Z M 113.898438 169.027344 C 113.484375 166.238281 113.429688 163.40625 113.820312 160.6875 C 115.101562 163.175781 116.03125 165.878906 116.601562 168.660156 C 116.28125 171.511719 116.328125 174.40625 116.746094 177.21875 C 116.167969 174.394531 115.203125 171.625 113.898438 169.027344 Z M 110.832031 143.683594 C 112.554688 145.253906 114.121094 147.039062 115.464844 148.976562 C 114.390625 151.097656 113.542969 153.328125 112.953125 155.601562 C 111.636719 153.648438 110.050781 151.828125 108.28125 150.191406 C 108.894531 147.917969 109.757812 145.71875 110.832031 143.683594 Z M 107.628906 153.160156 C 109.421875 154.699219 111.027344 156.441406 112.378906 158.347656 C 112.367188 158.40625 112.359375 158.46875 112.347656 158.527344 C 112.054688 161.175781 112.125 163.878906 112.523438 166.546875 C 111.113281 164.246094 109.425781 162.125 107.496094 160.285156 C 107.441406 160.238281 107.386719 160.191406 107.332031 160.144531 C 107.121094 157.851562 107.238281 155.492188 107.628906 153.160156 Z M 105.628906 161.378906 C 106.257812 163.964844 107.25 166.484375 108.535156 168.851562 C 106.421875 167.171875 104.113281 165.757812 101.667969 164.691406 C 101.601562 164.664062 101.535156 164.636719 101.46875 164.609375 C 100.484375 162.527344 99.785156 160.269531 99.355469 157.945312 C 101.570312 158.78125 103.675781 159.867188 105.59375 161.195312 C 105.605469 161.257812 105.617188 161.316406 105.628906 161.378906 Z M 99.125 147.945312 C 101.285156 148.832031 103.363281 149.976562 105.289062 151.335938 C 105.007812 153.695312 104.972656 156.082031 105.199219 158.421875 C 103.289062 157.035156 101.175781 155.867188 98.953125 154.933594 C 98.753906 152.589844 98.816406 150.226562 99.125 147.945312 Z M 96.535156 157.03125 C 97.078125 159.347656 97.859375 161.601562 98.875 163.722656 C 96.605469 163.070312 94.222656 162.699219 91.8125 162.582031 C 90.824219 160.445312 90.070312 158.203125 89.582031 155.957031 C 91.914062 156.050781 94.261719 156.414062 96.535156 157.03125 Z M 87.71875 172.207031 C 86.058594 170.539062 84.585938 168.691406 83.355469 166.746094 C 85.578125 166.035156 87.90625 165.574219 90.257812 165.378906 C 91.558594 167.371094 93.066406 169.21875 94.742188 170.867188 C 92.390625 171.03125 90.019531 171.496094 87.71875 172.207031 Z M 97.699219 170.820312 C 97.628906 170.816406 97.554688 170.816406 97.484375 170.8125 C 95.851562 169.191406 94.421875 167.3125 93.222656 165.273438 C 95.585938 165.300781 97.9375 165.601562 100.195312 166.195312 C 100.226562 166.246094 100.257812 166.300781 100.289062 166.351562 C 101.765625 168.570312 103.558594 170.597656 105.578125 172.382812 C 103.015625 171.527344 100.363281 170.988281 97.699219 170.820312 Z M 108.226562 173.398438 C 106.113281 171.53125 104.253906 169.394531 102.800781 167.058594 C 105.382812 168.144531 107.835938 169.613281 110.058594 171.378906 C 111.648438 173.769531 113.542969 175.957031 115.671875 177.84375 C 113.414062 176.054688 110.894531 174.550781 108.226562 173.398438 Z M 112.195312 173.226562 C 114.042969 174.96875 115.6875 176.917969 117.058594 179.007812 C 117.058594 179.007812 117.058594 179.007812 117.054688 179.003906 C 115.261719 177.3125 113.609375 175.355469 112.195312 173.226562 Z M 117.058594 179.007812 Z M 117.0625 179.007812 Z M 117.0625 179.003906 Z M 117.0625 179.003906 C 117.0625 179.003906 117.058594 179.003906 117.058594 179.003906 C 117.0625 179.003906 117.0625 179.003906 117.0625 179.003906 Z M 117.0625 179.003906 C 117.0625 179.003906 117.0625 179.003906 117.058594 179.003906 C 117.058594 179 117.058594 179 117.058594 179 C 116.773438 176.546875 116.765625 173.988281 117.050781 171.449219 C 117.347656 173.96875 117.351562 176.519531 117.0625 179.003906 Z M 117.0625 179.003906 Z M 117.0625 179.003906 C 117.0625 179 117.0625 179 117.0625 179 C 117.0625 179 117.0625 179 117.0625 179.003906 Z M 117.0625 179 C 117.0625 179 117.0625 179 117.0625 178.996094 C 117.628906 176.597656 118.5 174.1875 119.636719 171.898438 C 119.050781 174.367188 118.1875 176.765625 117.0625 179 Z M 117.0625 179 Z M 117.0625 179 C 117.0625 179 117.0625 179 117.066406 179 C 117.066406 179 117.066406 179 117.0625 179 Z M 117.066406 179 C 117.066406 179 117.066406 178.996094 117.066406 178.996094 C 118.421875 176.933594 120.0625 174.96875 121.914062 173.207031 C 120.519531 175.328125 118.882812 177.285156 117.066406 179 Z M 117.066406 179 Z M 117.066406 179 Z M 117.066406 179 C 117.066406 179 117.066406 179 117.070312 179 C 117.070312 179 117.066406 179 117.066406 179 Z M 117.070312 179 C 120.367188 177.90625 123.523438 176.253906 126.347656 174.15625 C 129.019531 173.261719 131.796875 172.71875 134.546875 172.625 C 129.585938 176.398438 123.28125 178.640625 117.070312 179 Z M 117.070312 179 C 124.148438 179.207031 131.472656 177.023438 137.164062 172.832031 C 137.222656 172.785156 137.277344 172.742188 137.335938 172.695312 C 139.628906 172.886719 141.933594 173.410156 144.160156 174.199219 C 141.851562 176.09375 139.273438 177.640625 136.539062 178.707031 C 130.375 180.839844 123.320312 180.875 117.070312 179 Z M 135.464844 185.386719 C 128.945312 185.28125 122.304688 182.902344 117.070312 179.003906 C 123.652344 181.617188 131.28125 182.070312 138.066406 180.078125 C 141.214844 179.078125 144.242188 177.429688 146.972656 175.355469 C 149.101562 176.355469 151.121094 177.589844 152.9375 179 C 147.976562 182.835938 141.6875 185.242188 135.464844 185.386719 Z M 135.464844 185.386719 " fill-opacity="1" fill-rule="nonzero"/></g></svg>